<?xml version="1.0" encoding="utf-8" standalone="no"?>
<!DOCTYPE svg PUBLIC "-//W3C//DTD SVG 1.1//EN"
  "http://www.w3.org/Graphics/SVG/1.1/DTD/svg11.dtd">
<svg xmlns:xlink="http://www.w3.org/1999/xlink" width="522.72pt" height="342.72pt" viewBox="0 0 522.72 342.72" xmlns="http://www.w3.org/2000/svg" version="1.1">
 <metadata>
  <rdf:RDF xmlns:dc="http://purl.org/dc/elements/1.1/" xmlns:cc="http://creativecommons.org/ns#" xmlns:rdf="http://www.w3.org/1999/02/22-rdf-syntax-ns#">
   <cc:Work>
    <dc:type rdf:resource="http://purl.org/dc/dcmitype/StillImage"/>
    <dc:date>2026-03-29T21:37:46.423749</dc:date>
    <dc:format>image/svg+xml</dc:format>
    <dc:creator>
     <cc:Agent>
      <dc:title>Matplotlib v3.10.8, https://matplotlib.org/</dc:title>
     </cc:Agent>
    </dc:creator>
   </cc:Work>
  </rdf:RDF>
 </metadata>
 <defs>
  <style type="text/css">*{stroke-linejoin: round; stroke-linecap: butt}</style>
 </defs>
 <g id="figure_1">
  <g id="patch_1">
   <path d="M -0 342.72 
L 522.72 342.72 
L 522.72 0 
L -0 0 
z
" style="fill: #ffffff"/>
  </g>
  <g id="axes_1">
   <g id="patch_2">
    <path d="M 12.4056 340.9344 
L 510.3144 340.9344 
Q 523.0944 340.9344 523.0944 332.6544 
L 523.0944 10.0656 
Q 523.0944 1.7856 510.3144 1.7856 
L 12.4056 1.7856 
Q -0.3744 1.7856 -0.3744 10.0656 
L -0.3744 332.6544 
Q -0.3744 340.9344 12.4056 340.9344 
z
" clip-path="url(#pb4dcbf2546)" style="fill: #ffffff; stroke: #d1d5db; stroke-width: 1.2; stroke-linejoin: miter"/>
   </g>
   <g id="patch_3">
    <path d="M 31.32 85.248 
L 491.4 85.248 
L 491.4 55.44 
L 31.32 55.44 
z
" clip-path="url(#pb4dcbf2546)" style="fill: #1b3a6b; stroke: #1b3a6b; stroke-linejoin: miter"/>
   </g>
   <g id="patch_4">
    <path d="M 31.32 113.4 
L 491.4 113.4 
L 491.4 85.248 
L 31.32 85.248 
z
" clip-path="url(#pb4dcbf2546)" style="fill: #f3f4f6; stroke: #d1d5db; stroke-width: 0.5; stroke-linejoin: miter"/>
   </g>
   <g id="patch_5">
    <path d="M 31.32 141.552 
L 491.4 141.552 
L 491.4 113.4 
L 31.32 113.4 
z
" clip-path="url(#pb4dcbf2546)" style="fill: #ffffff; stroke: #d1d5db; stroke-width: 0.5; stroke-linejoin: miter"/>
   </g>
   <g id="patch_6">
    <path d="M 31.32 169.704 
L 491.4 169.704 
L 491.4 141.552 
L 31.32 141.552 
z
" clip-path="url(#pb4dcbf2546)" style="fill: #f3f4f6; stroke: #d1d5db; stroke-width: 0.5; stroke-linejoin: miter"/>
   </g>
   <g id="patch_7">
    <path d="M 31.32 197.856 
L 491.4 197.856 
L 491.4 169.704 
L 31.32 169.704 
z
" clip-path="url(#pb4dcbf2546)" style="fill: #ffffff; stroke: #d1d5db; stroke-width: 0.5; stroke-linejoin: miter"/>
   </g>
   <g id="patch_8">
    <path d="M 31.32 226.008 
L 491.4 226.008 
L 491.4 197.856 
L 31.32 197.856 
z
" clip-path="url(#pb4dcbf2546)" style="fill: #f3f4f6; stroke: #d1d5db; stroke-width: 0.5; stroke-linejoin: miter"/>
   </g>
   <g id="patch_9">
    <path d="M 31.32 254.16 
L 491.4 254.16 
L 491.4 226.008 
L 31.32 226.008 
z
" clip-path="url(#pb4dcbf2546)" style="fill: #ffffff; stroke: #d1d5db; stroke-width: 0.5; stroke-linejoin: miter"/>
   </g>
   <g id="patch_10">
    <path d="M 31.32 282.312 
L 491.4 282.312 
L 491.4 254.16 
L 31.32 254.16 
z
" clip-path="url(#pb4dcbf2546)" style="fill: #f3f4f6; stroke: #d1d5db; stroke-width: 0.5; stroke-linejoin: miter"/>
   </g>
   <g id="patch_11">
    <path d="M 31.32 310.464 
L 491.4 310.464 
L 491.4 282.312 
L 31.32 282.312 
z
" clip-path="url(#pb4dcbf2546)" style="fill: #ffffff; stroke: #d1d5db; stroke-width: 0.5; stroke-linejoin: miter"/>
   </g>
   <g id="text_1">
    <text style="font-weight: 700; font-size: 15px; font-family: 'DejaVu Sans'; text-anchor: start; fill: #1b3a6b" x="31.32" y="36.336469" transform="rotate(-0 31.32 36.336469)">Impacto por categoria</text>
   </g>
   <g id="text_2">
    <text style="font-size: 9.3px; font-family: 'DejaVu Sans'; text-anchor: start; fill: #6b7280" x="31.32" y="51.382219" transform="rotate(-0 31.32 51.382219)">Tabela pronta para a coluna direita do slide 8.</text>
   </g>
   <g id="text_3">
    <text style="font-weight: 700; font-size: 10px; font-family: 'DejaVu Sans'; text-anchor: start; fill: #ffffff" x="37.4544" y="73.064312" transform="rotate(-0 37.4544 73.064312)">Categoria</text>
   </g>
   <g id="text_4">
    <text style="font-weight: 700; font-size: 10px; font-family: 'DejaVu Sans'; text-anchor: start; fill: #ffffff" x="244.4904" y="73.103375" transform="rotate(-0 244.4904 73.103375)">Delta receita</text>
   </g>
   <g id="text_5">
    <text style="font-weight: 700; font-size: 10px; font-family: 'DejaVu Sans'; text-anchor: start; fill: #048a81" x="387.1152" y="73.103375" transform="rotate(-0 387.1152 73.103375)">Var%</text>
   </g>
   <g id="text_6">
    <text style="font-weight: 700; font-size: 10px; font-family: 'DejaVu Sans'; text-anchor: start; fill: #1b3a6b" x="37.4544" y="102.083375" transform="rotate(-0 37.4544 102.083375)">SALADAS</text>
   </g>
   <g id="text_7">
    <text style="font-weight: 700; font-size: 9.6px; font-family: 'DejaVu Sans'; text-anchor: start; fill: #27ae60" x="244.4904" y="101.973" transform="rotate(-0 244.4904 101.973)">R$ 2,8M</text>
   </g>
   <g id="text_8">
    <text style="font-weight: 700; font-size: 9.6px; font-family: 'DejaVu Sans'; text-anchor: start; fill: #27ae60" x="387.1152" y="101.973" transform="rotate(-0 387.1152 101.973)">+28,8%</text>
   </g>
   <g id="text_9">
    <text style="font-weight: 700; font-size: 10px; font-family: 'DejaVu Sans'; text-anchor: start; fill: #1b3a6b" x="37.4544" y="130.235375" transform="rotate(-0 37.4544 130.235375)">LEGUMES</text>
   </g>
   <g id="text_10">
    <text style="font-weight: 700; font-size: 9.6px; font-family: 'DejaVu Sans'; text-anchor: start; fill: #27ae60" x="244.4904" y="130.125" transform="rotate(-0 244.4904 130.125)">R$ 613K</text>
   </g>
   <g id="text_11">
    <text style="font-weight: 700; font-size: 9.6px; font-family: 'DejaVu Sans'; text-anchor: start; fill: #27ae60" x="387.1152" y="130.125" transform="rotate(-0 387.1152 130.125)">+66,4%</text>
   </g>
   <g id="text_12">
    <text style="font-weight: 700; font-size: 10px; font-family: 'DejaVu Sans'; text-anchor: start; fill: #1b3a6b" x="37.4544" y="158.387375" transform="rotate(-0 37.4544 158.387375)">VERSATIL</text>
   </g>
   <g id="text_13">
    <text style="font-weight: 700; font-size: 9.6px; font-family: 'DejaVu Sans'; text-anchor: start; fill: #27ae60" x="244.4904" y="158.277" transform="rotate(-0 244.4904 158.277)">R$ 498K</text>
   </g>
   <g id="text_14">
    <text style="font-weight: 700; font-size: 9.6px; font-family: 'DejaVu Sans'; text-anchor: start; fill: #27ae60" x="387.1152" y="158.277" transform="rotate(-0 387.1152 158.277)">+73,9%</text>
   </g>
   <g id="text_15">
    <text style="font-weight: 700; font-size: 10px; font-family: 'DejaVu Sans'; text-anchor: start; fill: #1b3a6b" x="37.4544" y="186.539375" transform="rotate(-0 37.4544 186.539375)">TEMPEROS</text>
   </g>
   <g id="text_16">
    <text style="font-weight: 700; font-size: 9.6px; font-family: 'DejaVu Sans'; text-anchor: start; fill: #27ae60" x="244.4904" y="186.429" transform="rotate(-0 244.4904 186.429)">R$ 294K</text>
   </g>
   <g id="text_17">
    <text style="font-weight: 700; font-size: 9.6px; font-family: 'DejaVu Sans'; text-anchor: start; fill: #27ae60" x="387.1152" y="186.429" transform="rotate(-0 387.1152 186.429)">+23,1%</text>
   </g>
   <g id="text_18">
    <text style="font-weight: 700; font-size: 10px; font-family: 'DejaVu Sans'; text-anchor: start; fill: #1b3a6b" x="37.4544" y="214.691375" transform="rotate(-0 37.4544 214.691375)">IN NATURA</text>
   </g>
   <g id="text_19">
    <text style="font-weight: 700; font-size: 9.6px; font-family: 'DejaVu Sans'; text-anchor: start; fill: #27ae60" x="244.4904" y="214.581" transform="rotate(-0 244.4904 214.581)">R$ 277K</text>
   </g>
   <g id="text_20">
    <text style="font-weight: 700; font-size: 9.6px; font-family: 'DejaVu Sans'; text-anchor: start; fill: #27ae60" x="387.1152" y="214.581" transform="rotate(-0 387.1152 214.581)">+5,3%</text>
   </g>
   <g id="text_21">
    <text style="font-weight: 700; font-size: 10px; font-family: 'DejaVu Sans'; text-anchor: start; fill: #1b3a6b" x="37.4544" y="242.843375" transform="rotate(-0 37.4544 242.843375)">COUVE</text>
   </g>
   <g id="text_22">
    <text style="font-weight: 700; font-size: 9.6px; font-family: 'DejaVu Sans'; text-anchor: start; fill: #27ae60" x="244.4904" y="242.733" transform="rotate(-0 244.4904 242.733)">R$ 189K</text>
   </g>
   <g id="text_23">
    <text style="font-weight: 700; font-size: 9.6px; font-family: 'DejaVu Sans'; text-anchor: start; fill: #27ae60" x="387.1152" y="242.733" transform="rotate(-0 387.1152 242.733)">+8,6%</text>
   </g>
   <g id="text_24">
    <text style="font-weight: 700; font-size: 10px; font-family: 'DejaVu Sans'; text-anchor: start; fill: #1b3a6b" x="37.4544" y="270.995375" transform="rotate(-0 37.4544 270.995375)">GOURMET</text>
   </g>
   <g id="text_25">
    <text style="font-weight: 700; font-size: 9.6px; font-family: 'DejaVu Sans'; text-anchor: start; fill: #27ae60" x="244.4904" y="270.885" transform="rotate(-0 244.4904 270.885)">R$ 163K</text>
   </g>
   <g id="text_26">
    <text style="font-weight: 700; font-size: 9.6px; font-family: 'DejaVu Sans'; text-anchor: start; fill: #27ae60" x="387.1152" y="270.885" transform="rotate(-0 387.1152 270.885)">+170,7%</text>
   </g>
   <g id="text_27">
    <text style="font-weight: 700; font-size: 10px; font-family: 'DejaVu Sans'; text-anchor: start; fill: #1b3a6b" x="37.4544" y="299.147375" transform="rotate(-0 37.4544 299.147375)">SALADA COMPLETA</text>
   </g>
   <g id="text_28">
    <text style="font-weight: 700; font-size: 9.6px; font-family: 'DejaVu Sans'; text-anchor: start; fill: #27ae60" x="244.4904" y="299.037" transform="rotate(-0 244.4904 299.037)">R$ 0</text>
   </g>
   <g id="text_29">
    <text style="font-weight: 700; font-size: 9.6px; font-family: 'DejaVu Sans'; text-anchor: start; fill: #27ae60" x="387.1152" y="299.037" transform="rotate(-0 387.1152 299.037)">n/a</text>
   </g>
  </g>
 </g>
 <defs>
  <clipPath id="pb4dcbf2546">
   <rect x="5.76" y="5.76" width="511.2" height="331.2"/>
  </clipPath>
 </defs>
</svg>
