<?xml version="1.0" encoding="utf-8" standalone="no"?>
<!DOCTYPE svg PUBLIC "-//W3C//DTD SVG 1.1//EN"
  "http://www.w3.org/Graphics/SVG/1.1/DTD/svg11.dtd">
<svg xmlns:xlink="http://www.w3.org/1999/xlink" width="755.186524pt" height="434.73295pt" viewBox="0 0 755.186524 434.73295" xmlns="http://www.w3.org/2000/svg" version="1.1">
 <metadata>
  <rdf:RDF xmlns:dc="http://purl.org/dc/elements/1.1/" xmlns:cc="http://creativecommons.org/ns#" xmlns:rdf="http://www.w3.org/1999/02/22-rdf-syntax-ns#">
   <cc:Work>
    <dc:type rdf:resource="http://purl.org/dc/dcmitype/StillImage"/>
    <dc:date>2026-03-29T21:37:42.278144</dc:date>
    <dc:format>image/svg+xml</dc:format>
    <dc:creator>
     <cc:Agent>
      <dc:title>Matplotlib v3.10.8, https://matplotlib.org/</dc:title>
     </cc:Agent>
    </dc:creator>
   </cc:Work>
  </rdf:RDF>
 </metadata>
 <defs>
  <style type="text/css">*{stroke-linejoin: round; stroke-linecap: butt}</style>
 </defs>
 <g id="figure_1">
  <g id="patch_1">
   <path d="M 0 434.73295 
L 755.186524 434.73295 
L 755.186524 0 
L 0 0 
z
" style="fill: #ffffff"/>
  </g>
  <g id="axes_1">
   <g id="patch_2">
    <path d="M 77.8975 402.1167 
L 736.3375 402.1167 
L 736.3375 52.8447 
L 77.8975 52.8447 
z
" style="fill: #ffffff"/>
   </g>
   <g id="matplotlib.axis_1">
    <g id="xtick_1">
     <g id="line2d_1">
      <path d="M 77.8975 402.1167 
L 77.8975 52.8447 
" clip-path="url(#p46badd4576)" style="fill: none; stroke-dasharray: 2.96,1.28; stroke-dashoffset: 0; stroke: #d1d5db; stroke-opacity: 0.5; stroke-width: 0.8"/>
     </g>
     <g id="line2d_2"/>
     <g id="text_1">
      <text style="font-size: 10px; font-family: 'DejaVu Sans'; text-anchor: middle; fill: #6b7280" x="77.8975" y="413.215138" transform="rotate(-0 77.8975 413.215138)">R$ 0</text>
     </g>
    </g>
    <g id="xtick_2">
     <g id="line2d_3">
      <path d="M 168.894141 402.1167 
L 168.894141 52.8447 
" clip-path="url(#p46badd4576)" style="fill: none; stroke-dasharray: 2.96,1.28; stroke-dashoffset: 0; stroke: #d1d5db; stroke-opacity: 0.5; stroke-width: 0.8"/>
     </g>
     <g id="line2d_4"/>
     <g id="text_2">
      <text style="font-size: 10px; font-family: 'DejaVu Sans'; text-anchor: middle; fill: #6b7280" x="168.894141" y="413.215138" transform="rotate(-0 168.894141 413.215138)">R$ 1,0M</text>
     </g>
    </g>
    <g id="xtick_3">
     <g id="line2d_5">
      <path d="M 259.890781 402.1167 
L 259.890781 52.8447 
" clip-path="url(#p46badd4576)" style="fill: none; stroke-dasharray: 2.96,1.28; stroke-dashoffset: 0; stroke: #d1d5db; stroke-opacity: 0.5; stroke-width: 0.8"/>
     </g>
     <g id="line2d_6"/>
     <g id="text_3">
      <text style="font-size: 10px; font-family: 'DejaVu Sans'; text-anchor: middle; fill: #6b7280" x="259.890781" y="413.215138" transform="rotate(-0 259.890781 413.215138)">R$ 2,0M</text>
     </g>
    </g>
    <g id="xtick_4">
     <g id="line2d_7">
      <path d="M 350.887422 402.1167 
L 350.887422 52.8447 
" clip-path="url(#p46badd4576)" style="fill: none; stroke-dasharray: 2.96,1.28; stroke-dashoffset: 0; stroke: #d1d5db; stroke-opacity: 0.5; stroke-width: 0.8"/>
     </g>
     <g id="line2d_8"/>
     <g id="text_4">
      <text style="font-size: 10px; font-family: 'DejaVu Sans'; text-anchor: middle; fill: #6b7280" x="350.887422" y="413.215138" transform="rotate(-0 350.887422 413.215138)">R$ 3,0M</text>
     </g>
    </g>
    <g id="xtick_5">
     <g id="line2d_9">
      <path d="M 441.884063 402.1167 
L 441.884063 52.8447 
" clip-path="url(#p46badd4576)" style="fill: none; stroke-dasharray: 2.96,1.28; stroke-dashoffset: 0; stroke: #d1d5db; stroke-opacity: 0.5; stroke-width: 0.8"/>
     </g>
     <g id="line2d_10"/>
     <g id="text_5">
      <text style="font-size: 10px; font-family: 'DejaVu Sans'; text-anchor: middle; fill: #6b7280" x="441.884063" y="413.215138" transform="rotate(-0 441.884063 413.215138)">R$ 4,0M</text>
     </g>
    </g>
    <g id="xtick_6">
     <g id="line2d_11">
      <path d="M 532.880704 402.1167 
L 532.880704 52.8447 
" clip-path="url(#p46badd4576)" style="fill: none; stroke-dasharray: 2.96,1.28; stroke-dashoffset: 0; stroke: #d1d5db; stroke-opacity: 0.5; stroke-width: 0.8"/>
     </g>
     <g id="line2d_12"/>
     <g id="text_6">
      <text style="font-size: 10px; font-family: 'DejaVu Sans'; text-anchor: middle; fill: #6b7280" x="532.880704" y="413.215138" transform="rotate(-0 532.880704 413.215138)">R$ 5,0M</text>
     </g>
    </g>
    <g id="xtick_7">
     <g id="line2d_13">
      <path d="M 623.877344 402.1167 
L 623.877344 52.8447 
" clip-path="url(#p46badd4576)" style="fill: none; stroke-dasharray: 2.96,1.28; stroke-dashoffset: 0; stroke: #d1d5db; stroke-opacity: 0.5; stroke-width: 0.8"/>
     </g>
     <g id="line2d_14"/>
     <g id="text_7">
      <text style="font-size: 10px; font-family: 'DejaVu Sans'; text-anchor: middle; fill: #6b7280" x="623.877344" y="413.215138" transform="rotate(-0 623.877344 413.215138)">R$ 6,0M</text>
     </g>
    </g>
    <g id="xtick_8">
     <g id="line2d_15">
      <path d="M 714.873985 402.1167 
L 714.873985 52.8447 
" clip-path="url(#p46badd4576)" style="fill: none; stroke-dasharray: 2.96,1.28; stroke-dashoffset: 0; stroke: #d1d5db; stroke-opacity: 0.5; stroke-width: 0.8"/>
     </g>
     <g id="line2d_16"/>
     <g id="text_8">
      <text style="font-size: 10px; font-family: 'DejaVu Sans'; text-anchor: middle; fill: #6b7280" x="714.873985" y="413.215138" transform="rotate(-0 714.873985 413.215138)">R$ 7,0M</text>
     </g>
    </g>
    <g id="text_9">
     <text style="font-size: 10px; font-family: 'DejaVu Sans'; text-anchor: middle; fill: #6b7280" x="407.1175" y="426.893262" transform="rotate(-0 407.1175 426.893262)">Receita 2025</text>
    </g>
   </g>
   <g id="matplotlib.axis_2">
    <g id="ytick_1">
     <g id="line2d_17"/>
     <g id="text_10">
      <text style="font-size: 10px; font-family: 'DejaVu Sans'; text-anchor: end; fill: #6b7280" x="74.3975" y="81.788393" transform="rotate(-0 74.3975 81.788393)">GPA</text>
     </g>
    </g>
    <g id="ytick_2">
     <g id="line2d_18"/>
     <g id="text_11">
      <text style="font-size: 10px; font-family: 'DejaVu Sans'; text-anchor: end; fill: #6b7280" x="74.3975" y="111.686698" transform="rotate(-0 74.3975 111.686698)">OBA</text>
     </g>
    </g>
    <g id="ytick_3">
     <g id="line2d_19"/>
     <g id="text_12">
      <text style="font-size: 10px; font-family: 'DejaVu Sans'; text-anchor: end; fill: #6b7280" x="74.3975" y="141.585003" transform="rotate(-0 74.3975 141.585003)">COVABRA</text>
     </g>
    </g>
    <g id="ytick_4">
     <g id="line2d_20"/>
     <g id="text_13">
      <text style="font-size: 10px; font-family: 'DejaVu Sans'; text-anchor: end; fill: #6b7280" x="74.3975" y="171.483309" transform="rotate(-0 74.3975 171.483309)">SAVEGNAGO</text>
     </g>
    </g>
    <g id="ytick_5">
     <g id="line2d_21"/>
     <g id="text_14">
      <text style="font-size: 10px; font-family: 'DejaVu Sans'; text-anchor: end; fill: #6b7280" x="74.3975" y="201.381614" transform="rotate(-0 74.3975 201.381614)">ST MARCHE</text>
     </g>
    </g>
    <g id="ytick_6">
     <g id="line2d_22"/>
     <g id="text_15">
      <text style="font-size: 10px; font-family: 'DejaVu Sans'; text-anchor: end; fill: #6b7280" x="74.3975" y="231.279919" transform="rotate(-0 74.3975 231.279919)">CARREFOUR</text>
     </g>
    </g>
    <g id="ytick_7">
     <g id="line2d_23"/>
     <g id="text_16">
      <text style="font-size: 10px; font-family: 'DejaVu Sans'; text-anchor: end; fill: #6b7280" x="74.3975" y="261.178224" transform="rotate(-0 74.3975 261.178224)">MAMBO</text>
     </g>
    </g>
    <g id="ytick_8">
     <g id="line2d_24"/>
     <g id="text_17">
      <text style="font-size: 10px; font-family: 'DejaVu Sans'; text-anchor: end; fill: #6b7280" x="74.3975" y="291.076529" transform="rotate(-0 74.3975 291.076529)">ENXUTO</text>
     </g>
    </g>
    <g id="ytick_9">
     <g id="line2d_25"/>
     <g id="text_18">
      <text style="font-size: 10px; font-family: 'DejaVu Sans'; text-anchor: end; fill: #6b7280" x="74.3975" y="320.974834" transform="rotate(-0 74.3975 320.974834)">DALBEN</text>
     </g>
    </g>
    <g id="ytick_10">
     <g id="line2d_26"/>
     <g id="text_19">
      <text style="font-size: 10px; font-family: 'DejaVu Sans'; text-anchor: end; fill: #6b7280" x="74.3975" y="350.873139" transform="rotate(-0 74.3975 350.873139)">BOA</text>
     </g>
    </g>
    <g id="ytick_11">
     <g id="line2d_27"/>
     <g id="text_20">
      <text style="font-size: 10px; font-family: 'DejaVu Sans'; text-anchor: end; fill: #6b7280" x="74.3975" y="380.771444" transform="rotate(-0 74.3975 380.771444)">Demais redes</text>
     </g>
    </g>
   </g>
   <g id="patch_3">
    <path d="M 77.8975 68.7207 
L 704.983214 68.7207 
L 704.983214 87.257649 
L 77.8975 87.257649 
z
" clip-path="url(#p46badd4576)" style="fill: #1b3a6b"/>
   </g>
   <g id="patch_4">
    <path d="M 77.8975 98.619005 
L 335.201072 98.619005 
L 335.201072 117.155954 
L 77.8975 117.155954 
z
" clip-path="url(#p46badd4576)" style="fill: #1b3a6b"/>
   </g>
   <g id="patch_5">
    <path d="M 77.8975 128.51731 
L 329.439372 128.51731 
L 329.439372 147.054259 
L 77.8975 147.054259 
z
" clip-path="url(#p46badd4576)" style="fill: #1b3a6b"/>
   </g>
   <g id="patch_6">
    <path d="M 77.8975 158.415615 
L 223.404695 158.415615 
L 223.404695 176.952564 
L 77.8975 176.952564 
z
" clip-path="url(#p46badd4576)" style="fill: #1b3a6b"/>
   </g>
   <g id="patch_7">
    <path d="M 77.8975 188.31392 
L 213.027577 188.31392 
L 213.027577 206.850869 
L 77.8975 206.850869 
z
" clip-path="url(#p46badd4576)" style="fill: #1b3a6b"/>
   </g>
   <g id="patch_8">
    <path d="M 77.8975 218.212225 
L 198.205257 218.212225 
L 198.205257 236.749175 
L 77.8975 236.749175 
z
" clip-path="url(#p46badd4576)" style="fill: #1b3a6b"/>
   </g>
   <g id="patch_9">
    <path d="M 77.8975 248.110531 
L 194.685166 248.110531 
L 194.685166 266.64748 
L 77.8975 266.64748 
z
" clip-path="url(#p46badd4576)" style="fill: #1b3a6b"/>
   </g>
   <g id="patch_10">
    <path d="M 77.8975 278.008836 
L 172.018509 278.008836 
L 172.018509 296.545785 
L 77.8975 296.545785 
z
" clip-path="url(#p46badd4576)" style="fill: #1b3a6b"/>
   </g>
   <g id="patch_11">
    <path d="M 77.8975 307.907141 
L 128.093285 307.907141 
L 128.093285 326.44409 
L 77.8975 326.44409 
z
" clip-path="url(#p46badd4576)" style="fill: #1b3a6b"/>
   </g>
   <g id="patch_12">
    <path d="M 77.8975 337.805446 
L 127.268282 337.805446 
L 127.268282 356.342395 
L 77.8975 356.342395 
z
" clip-path="url(#p46badd4576)" style="fill: #1b3a6b"/>
   </g>
   <g id="patch_13">
    <path d="M 77.8975 367.703751 
L 506.476721 367.703751 
L 506.476721 386.2407 
L 77.8975 386.2407 
z
" clip-path="url(#p46badd4576)" style="fill: #d1d5db"/>
   </g>
   <g id="patch_14">
    <path d="M 517.73542 388.844364 
L 704.73238 388.844364 
Q 717.90118 388.844364 717.90118 381.858924 
L 717.90118 338.549196 
Q 717.90118 331.563756 704.73238 331.563756 
L 517.73542 331.563756 
Q 504.56662 331.563756 504.56662 338.549196 
L 504.56662 381.858924 
Q 504.56662 388.844364 517.73542 388.844364 
z
" clip-path="url(#p46badd4576)" style="fill: #f3f4f6; stroke: #d1d5db; stroke-linejoin: miter"/>
   </g>
   <g id="patch_15">
    <path d="M 77.8975 402.1167 
L 77.8975 52.8447 
" style="fill: none; stroke: #d1d5db; stroke-width: 0.8; stroke-linejoin: miter; stroke-linecap: square"/>
   </g>
   <g id="patch_16">
    <path d="M 77.8975 402.1167 
L 736.3375 402.1167 
" style="fill: none; stroke: #d1d5db; stroke-width: 0.8; stroke-linejoin: miter; stroke-linecap: square"/>
   </g>
   <g id="text_21">
    <text style="font-weight: 700; font-size: 16px; font-family: 'DejaVu Sans'; text-anchor: start; fill: #1b3a6b" x="77.8975" y="17.9175" transform="rotate(-0 77.8975 17.9175)">Curva ABC / Pareto</text>
   </g>
   <g id="text_22">
    <text style="font-size: 9.5px; font-family: 'DejaVu Sans'; text-anchor: start; fill: #6b7280" x="77.8975" y="38.87382" transform="rotate(-0 77.8975 38.87382)">Top 10 redes em navy e consolidado do restante em cinza.</text>
   </g>
   <g id="text_23">
    <text style="font-size: 9px; font-family: 'DejaVu Sans'; text-anchor: start; fill: #6b7280" x="712.508243" y="80.472612" transform="rotate(-0 712.508243 80.472612)">R$ 6,9M</text>
   </g>
   <g id="text_24">
    <text style="font-size: 9px; font-family: 'DejaVu Sans'; text-anchor: start; fill: #6b7280" x="342.7261" y="110.370917" transform="rotate(-0 342.7261 110.370917)">R$ 2,8M</text>
   </g>
   <g id="text_25">
    <text style="font-size: 9px; font-family: 'DejaVu Sans'; text-anchor: start; fill: #6b7280" x="336.964401" y="140.269222" transform="rotate(-0 336.964401 140.269222)">R$ 2,8M</text>
   </g>
   <g id="text_26">
    <text style="font-size: 9px; font-family: 'DejaVu Sans'; text-anchor: start; fill: #6b7280" x="230.929723" y="170.167527" transform="rotate(-0 230.929723 170.167527)">R$ 1,6M</text>
   </g>
   <g id="text_27">
    <text style="font-size: 9px; font-family: 'DejaVu Sans'; text-anchor: start; fill: #6b7280" x="220.552606" y="200.065832" transform="rotate(-0 220.552606 200.065832)">R$ 1,5M</text>
   </g>
   <g id="text_28">
    <text style="font-size: 9px; font-family: 'DejaVu Sans'; text-anchor: start; fill: #6b7280" x="205.730286" y="229.964137" transform="rotate(-0 205.730286 229.964137)">R$ 1,3M</text>
   </g>
   <g id="text_29">
    <text style="font-size: 9px; font-family: 'DejaVu Sans'; text-anchor: start; fill: #6b7280" x="202.210194" y="259.862443" transform="rotate(-0 202.210194 259.862443)">R$ 1,3M</text>
   </g>
   <g id="text_30">
    <text style="font-size: 9px; font-family: 'DejaVu Sans'; text-anchor: start; fill: #6b7280" x="179.543538" y="289.760748" transform="rotate(-0 179.543538 289.760748)">R$ 1,0M</text>
   </g>
   <g id="text_31">
    <text style="font-size: 9px; font-family: 'DejaVu Sans'; text-anchor: start; fill: #6b7280" x="135.618314" y="319.659053" transform="rotate(-0 135.618314 319.659053)">R$ 552K</text>
   </g>
   <g id="text_32">
    <text style="font-size: 9px; font-family: 'DejaVu Sans'; text-anchor: start; fill: #6b7280" x="134.793311" y="349.557358" transform="rotate(-0 134.793311 349.557358)">R$ 543K</text>
   </g>
   <g id="text_33">
    <text style="font-size: 9px; font-family: 'DejaVu Sans'; text-anchor: start; fill: #6b7280" x="514.001749" y="379.455663" transform="rotate(-0 514.001749 379.455663)">R$ 4,7M</text>
   </g>
   <g id="text_34">
    <text style="font-weight: 700; font-size: 9px; font-family: 'DejaVu Sans'; text-anchor: start; fill: #1b3a6b" x="528.9289" y="354.96498" transform="rotate(-0 528.9289 354.96498)">Classe A</text>
   </g>
   <g id="text_35">
    <text style="font-weight: 700; font-size: 10.5px; font-family: 'DejaVu Sans'; text-anchor: start; fill: #1b3a6b" x="528.9289" y="373.127124" transform="rotate(-0 528.9289 373.127124)">10 redes = 81,2% da receita</text>
   </g>
   <g id="text_36">
    <text style="font-size: 8.5px; font-family: 'DejaVu Sans'; text-anchor: start; fill: #6b7280" x="528.9289" y="388.14582" transform="rotate(-0 528.9289 388.14582)">Receita total 2025: R$ 25.011.150</text>
   </g>
   <g id="legend_1">
    <g id="patch_17">
     <path d="M 616.975 365.724356 
L 634.975 365.724356 
L 634.975 359.424356 
L 616.975 359.424356 
z
" style="fill: #1b3a6b; stroke: #1b3a6b; stroke-linejoin: miter"/>
    </g>
    <g id="text_37">
     <text style="font-size: 9px; font-family: 'DejaVu Sans'; text-anchor: start" x="642.175" y="365.724356" transform="rotate(-0 642.175 365.724356)">Classe A (&lt;= 80%)</text>
    </g>
    <g id="patch_18">
     <path d="M 616.975 378.934669 
L 634.975 378.934669 
L 634.975 372.634669 
L 616.975 372.634669 
z
" style="fill: #d1d5db; stroke: #d1d5db; stroke-linejoin: miter"/>
    </g>
    <g id="text_38">
     <text style="font-size: 9px; font-family: 'DejaVu Sans'; text-anchor: start" x="642.175" y="378.934669" transform="rotate(-0 642.175 378.934669)">Demais redes</text>
    </g>
    <g id="line2d_28">
     <path d="M 616.975 388.994981 
L 625.975 388.994981 
L 634.975 388.994981 
" style="fill: none; stroke: #c0392b; stroke-width: 2; stroke-linecap: square"/>
     <defs>
      <path id="m0706964c53" d="M 0 3 
C 0.795609 3 1.55874 2.683901 2.12132 2.12132 
C 2.683901 1.55874 3 0.795609 3 0 
C 3 -0.795609 2.683901 -1.55874 2.12132 -2.12132 
C 1.55874 -2.683901 0.795609 -3 0 -3 
C -0.795609 -3 -1.55874 -2.683901 -2.12132 -2.12132 
C -2.683901 -1.55874 -3 -0.795609 -3 0 
C -3 0.795609 -2.683901 1.55874 -2.12132 2.12132 
C -1.55874 2.683901 -0.795609 3 0 3 
z
" style="stroke: #c0392b"/>
     </defs>
     <g>
      <use xlink:href="#m0706964c53" x="625.975" y="388.994981" style="fill: #c0392b; stroke: #c0392b"/>
     </g>
    </g>
    <g id="text_39">
     <text style="font-size: 9px; font-family: 'DejaVu Sans'; text-anchor: start" x="642.175" y="392.144981" transform="rotate(-0 642.175 392.144981)">% acumulado</text>
    </g>
   </g>
  </g>
  <g id="axes_2">
   <g id="matplotlib.axis_3">
    <g id="xtick_9">
     <g id="line2d_29"/>
     <g id="text_40">
      <text style="font-size: 10px; font-family: 'DejaVu Sans'; text-anchor: middle; fill: #c0392b" x="77.8975" y="47.265013" transform="rotate(-0 77.8975 47.265013)">0</text>
     </g>
    </g>
    <g id="xtick_10">
     <g id="line2d_30"/>
     <g id="text_41">
      <text style="font-size: 10px; font-family: 'DejaVu Sans'; text-anchor: middle; fill: #c0392b" x="209.5855" y="47.265013" transform="rotate(-0 209.5855 47.265013)">20</text>
     </g>
    </g>
    <g id="xtick_11">
     <g id="line2d_31"/>
     <g id="text_42">
      <text style="font-size: 10px; font-family: 'DejaVu Sans'; text-anchor: middle; fill: #c0392b" x="341.2735" y="47.265013" transform="rotate(-0 341.2735 47.265013)">40</text>
     </g>
    </g>
    <g id="xtick_12">
     <g id="line2d_32"/>
     <g id="text_43">
      <text style="font-size: 10px; font-family: 'DejaVu Sans'; text-anchor: middle; fill: #c0392b" x="472.9615" y="47.265013" transform="rotate(-0 472.9615 47.265013)">60</text>
     </g>
    </g>
    <g id="xtick_13">
     <g id="line2d_33"/>
     <g id="text_44">
      <text style="font-size: 10px; font-family: 'DejaVu Sans'; text-anchor: middle; fill: #c0392b" x="604.6495" y="47.265013" transform="rotate(-0 604.6495 47.265013)">80</text>
     </g>
    </g>
    <g id="xtick_14">
     <g id="line2d_34"/>
     <g id="text_45">
      <text style="font-size: 10px; font-family: 'DejaVu Sans'; text-anchor: middle; fill: #c0392b" x="736.3375" y="47.265013" transform="rotate(-0 736.3375 47.265013)">100</text>
     </g>
    </g>
    <g id="text_46">
     <text style="font-size: 10px; font-family: 'DejaVu Sans'; text-anchor: middle; fill: #c0392b" x="407.1175" y="35.666575" transform="rotate(-0 407.1175 35.666575)">% acumulado</text>
    </g>
   </g>
   <g id="line2d_35">
    <path d="M 259.317051 77.989175 
L 333.756474 107.88748 
L 406.529004 137.785785 
L 448.625083 167.68409 
L 487.719002 197.582395 
L 522.524737 227.4807 
L 556.312089 257.379005 
L 583.541846 287.27731 
L 598.063779 317.175615 
L 612.347034 347.07392 
L 736.3375 376.972225 
" clip-path="url(#p46badd4576)" style="fill: none; stroke: #c0392b; stroke-width: 2.2; stroke-linecap: square"/>
    <defs>
     <path id="m42e12bb0f9" d="M 0 2.5 
C 0.663008 2.5 1.29895 2.236584 1.767767 1.767767 
C 2.236584 1.29895 2.5 0.663008 2.5 0 
C 2.5 -0.663008 2.236584 -1.29895 1.767767 -1.767767 
C 1.29895 -2.236584 0.663008 -2.5 0 -2.5 
C -0.663008 -2.5 -1.29895 -2.236584 -1.767767 -1.767767 
C -2.236584 -1.29895 -2.5 -0.663008 -2.5 0 
C -2.5 0.663008 -2.236584 1.29895 -1.767767 1.767767 
C -1.29895 2.236584 -0.663008 2.5 0 2.5 
z
" style="stroke: #c0392b"/>
    </defs>
    <g clip-path="url(#p46badd4576)">
     <use xlink:href="#m42e12bb0f9" x="259.317051" y="77.989175" style="fill: #c0392b; stroke: #c0392b"/>
     <use xlink:href="#m42e12bb0f9" x="333.756474" y="107.88748" style="fill: #c0392b; stroke: #c0392b"/>
     <use xlink:href="#m42e12bb0f9" x="406.529004" y="137.785785" style="fill: #c0392b; stroke: #c0392b"/>
     <use xlink:href="#m42e12bb0f9" x="448.625083" y="167.68409" style="fill: #c0392b; stroke: #c0392b"/>
     <use xlink:href="#m42e12bb0f9" x="487.719002" y="197.582395" style="fill: #c0392b; stroke: #c0392b"/>
     <use xlink:href="#m42e12bb0f9" x="522.524737" y="227.4807" style="fill: #c0392b; stroke: #c0392b"/>
     <use xlink:href="#m42e12bb0f9" x="556.312089" y="257.379005" style="fill: #c0392b; stroke: #c0392b"/>
     <use xlink:href="#m42e12bb0f9" x="583.541846" y="287.27731" style="fill: #c0392b; stroke: #c0392b"/>
     <use xlink:href="#m42e12bb0f9" x="598.063779" y="317.175615" style="fill: #c0392b; stroke: #c0392b"/>
     <use xlink:href="#m42e12bb0f9" x="612.347034" y="347.07392" style="fill: #c0392b; stroke: #c0392b"/>
     <use xlink:href="#m42e12bb0f9" x="736.3375" y="376.972225" style="fill: #c0392b; stroke: #c0392b"/>
    </g>
   </g>
   <g id="line2d_36">
    <path d="M 604.6495 402.1167 
L 604.6495 52.8447 
" clip-path="url(#p46badd4576)" style="fill: none; stroke-dasharray: 4.44,1.92; stroke-dashoffset: 0; stroke: #c0392b; stroke-opacity: 0.9; stroke-width: 1.2"/>
   </g>
   <g id="patch_19">
    <path d="M 77.8975 402.1167 
L 736.3375 402.1167 
" style="fill: none; stroke: #d1d5db; stroke-width: 0.8; stroke-linejoin: miter; stroke-linecap: square"/>
   </g>
   <g id="patch_20">
    <path d="M 77.8975 52.8447 
L 736.3375 52.8447 
" style="fill: none; stroke: #d1d5db; stroke-width: 0.8; stroke-linejoin: miter; stroke-linecap: square"/>
   </g>
  </g>
 </g>
 <defs>
  <clipPath id="p46badd4576">
   <rect x="77.8975" y="52.8447" width="658.44" height="349.272"/>
  </clipPath>
 </defs>
</svg>
