<?xml version="1.0" encoding="utf-8" standalone="no"?>
<!DOCTYPE svg PUBLIC "-//W3C//DTD SVG 1.1//EN"
  "http://www.w3.org/Graphics/SVG/1.1/DTD/svg11.dtd">
<svg xmlns:xlink="http://www.w3.org/1999/xlink" width="722.089687pt" height="446.92975pt" viewBox="0 0 722.089687 446.92975" xmlns="http://www.w3.org/2000/svg" version="1.1">
 <metadata>
  <rdf:RDF xmlns:dc="http://purl.org/dc/elements/1.1/" xmlns:cc="http://creativecommons.org/ns#" xmlns:rdf="http://www.w3.org/1999/02/22-rdf-syntax-ns#">
   <cc:Work>
    <dc:type rdf:resource="http://purl.org/dc/dcmitype/StillImage"/>
    <dc:date>2026-03-29T21:37:43.241113</dc:date>
    <dc:format>image/svg+xml</dc:format>
    <dc:creator>
     <cc:Agent>
      <dc:title>Matplotlib v3.10.8, https://matplotlib.org/</dc:title>
     </cc:Agent>
    </dc:creator>
   </cc:Work>
  </rdf:RDF>
 </metadata>
 <defs>
  <style type="text/css">*{stroke-linejoin: round; stroke-linecap: butt}</style>
 </defs>
 <g id="figure_1">
  <g id="patch_1">
   <path d="M 0 446.92975 
L 722.089687 446.92975 
L 722.089687 0 
L 0 0 
z
" style="fill: #ffffff"/>
  </g>
  <g id="axes_1">
   <g id="patch_2">
    <path d="M 57.889688 414.3135 
L 716.329687 414.3135 
L 716.329687 53.9535 
L 57.889688 53.9535 
z
" style="fill: #ffffff"/>
   </g>
   <g id="matplotlib.axis_1">
    <g id="xtick_1">
     <g id="line2d_1">
      <path d="M 148.085777 414.3135 
L 148.085777 53.9535 
" clip-path="url(#p3504d54995)" style="fill: none; stroke-dasharray: 2.96,1.28; stroke-dashoffset: 0; stroke: #d1d5db; stroke-opacity: 0.5; stroke-width: 0.8"/>
     </g>
     <g id="line2d_2"/>
     <g id="text_1">
      <text style="font-size: 10px; font-family: 'DejaVu Sans'; text-anchor: middle; fill: #6b7280" x="148.085777" y="425.411937" transform="rotate(-0 148.085777 425.411937)">2.5</text>
     </g>
    </g>
    <g id="xtick_2">
     <g id="line2d_3">
      <path d="M 279.682155 414.3135 
L 279.682155 53.9535 
" clip-path="url(#p3504d54995)" style="fill: none; stroke-dasharray: 2.96,1.28; stroke-dashoffset: 0; stroke: #d1d5db; stroke-opacity: 0.5; stroke-width: 0.8"/>
     </g>
     <g id="line2d_4"/>
     <g id="text_2">
      <text style="font-size: 10px; font-family: 'DejaVu Sans'; text-anchor: middle; fill: #6b7280" x="279.682155" y="425.411937" transform="rotate(-0 279.682155 425.411937)">3.0</text>
     </g>
    </g>
    <g id="xtick_3">
     <g id="line2d_5">
      <path d="M 411.278533 414.3135 
L 411.278533 53.9535 
" clip-path="url(#p3504d54995)" style="fill: none; stroke-dasharray: 2.96,1.28; stroke-dashoffset: 0; stroke: #d1d5db; stroke-opacity: 0.5; stroke-width: 0.8"/>
     </g>
     <g id="line2d_6"/>
     <g id="text_3">
      <text style="font-size: 10px; font-family: 'DejaVu Sans'; text-anchor: middle; fill: #6b7280" x="411.278533" y="425.411937" transform="rotate(-0 411.278533 425.411937)">3.5</text>
     </g>
    </g>
    <g id="xtick_4">
     <g id="line2d_7">
      <path d="M 542.874912 414.3135 
L 542.874912 53.9535 
" clip-path="url(#p3504d54995)" style="fill: none; stroke-dasharray: 2.96,1.28; stroke-dashoffset: 0; stroke: #d1d5db; stroke-opacity: 0.5; stroke-width: 0.8"/>
     </g>
     <g id="line2d_8"/>
     <g id="text_4">
      <text style="font-size: 10px; font-family: 'DejaVu Sans'; text-anchor: middle; fill: #6b7280" x="542.874912" y="425.411937" transform="rotate(-0 542.874912 425.411937)">4.0</text>
     </g>
    </g>
    <g id="xtick_5">
     <g id="line2d_9">
      <path d="M 674.47129 414.3135 
L 674.47129 53.9535 
" clip-path="url(#p3504d54995)" style="fill: none; stroke-dasharray: 2.96,1.28; stroke-dashoffset: 0; stroke: #d1d5db; stroke-opacity: 0.5; stroke-width: 0.8"/>
     </g>
     <g id="line2d_10"/>
     <g id="text_5">
      <text style="font-size: 10px; font-family: 'DejaVu Sans'; text-anchor: middle; fill: #6b7280" x="674.47129" y="425.411937" transform="rotate(-0 674.47129 425.411937)">4.5</text>
     </g>
    </g>
    <g id="text_6">
     <text style="font-size: 10px; font-family: 'DejaVu Sans'; text-anchor: middle; fill: #6b7280" x="387.109688" y="439.090062" transform="rotate(-0 387.109688 439.090062)">Preco medio 2025 (R$)</text>
    </g>
   </g>
   <g id="matplotlib.axis_2">
    <g id="ytick_1">
     <g id="line2d_11"/>
     <g id="text_7">
      <text style="font-size: 10px; font-family: 'DejaVu Sans'; text-anchor: end; fill: #6b7280" x="54.389688" y="397.637719" transform="rotate(-0 54.389688 397.637719)">0%</text>
     </g>
    </g>
    <g id="ytick_2">
     <g id="line2d_12"/>
     <g id="text_8">
      <text style="font-size: 10px; font-family: 'DejaVu Sans'; text-anchor: end; fill: #6b7280" x="54.389688" y="356.687719" transform="rotate(-0 54.389688 356.687719)">200%</text>
     </g>
    </g>
    <g id="ytick_3">
     <g id="line2d_13"/>
     <g id="text_9">
      <text style="font-size: 10px; font-family: 'DejaVu Sans'; text-anchor: end; fill: #6b7280" x="54.389688" y="315.737719" transform="rotate(-0 54.389688 315.737719)">400%</text>
     </g>
    </g>
    <g id="ytick_4">
     <g id="line2d_14"/>
     <g id="text_10">
      <text style="font-size: 10px; font-family: 'DejaVu Sans'; text-anchor: end; fill: #6b7280" x="54.389688" y="274.787719" transform="rotate(-0 54.389688 274.787719)">600%</text>
     </g>
    </g>
    <g id="ytick_5">
     <g id="line2d_15"/>
     <g id="text_11">
      <text style="font-size: 10px; font-family: 'DejaVu Sans'; text-anchor: end; fill: #6b7280" x="54.389688" y="233.837719" transform="rotate(-0 54.389688 233.837719)">800%</text>
     </g>
    </g>
    <g id="ytick_6">
     <g id="line2d_16"/>
     <g id="text_12">
      <text style="font-size: 10px; font-family: 'DejaVu Sans'; text-anchor: end; fill: #6b7280" x="54.389688" y="192.887719" transform="rotate(-0 54.389688 192.887719)">1000%</text>
     </g>
    </g>
    <g id="ytick_7">
     <g id="line2d_17"/>
     <g id="text_13">
      <text style="font-size: 10px; font-family: 'DejaVu Sans'; text-anchor: end; fill: #6b7280" x="54.389688" y="151.937719" transform="rotate(-0 54.389688 151.937719)">1200%</text>
     </g>
    </g>
    <g id="ytick_8">
     <g id="line2d_18"/>
     <g id="text_14">
      <text style="font-size: 10px; font-family: 'DejaVu Sans'; text-anchor: end; fill: #6b7280" x="54.389688" y="110.987719" transform="rotate(-0 54.389688 110.987719)">1400%</text>
     </g>
    </g>
    <g id="ytick_9">
     <g id="line2d_19"/>
     <g id="text_15">
      <text style="font-size: 10px; font-family: 'DejaVu Sans'; text-anchor: end; fill: #6b7280" x="54.389688" y="70.037719" transform="rotate(-0 54.389688 70.037719)">1600%</text>
     </g>
    </g>
    <g id="text_16">
     <text style="font-size: 10px; font-family: 'DejaVu Sans'; text-anchor: middle; fill: #6b7280" x="13.358438" y="234.1335" transform="rotate(-90 13.358438 234.1335)">Crescimento de receita (%)</text>
    </g>
   </g>
   <g id="PathCollection_1">
    <defs>
     <path id="C0_0_60f5a72724" d="M 0 3.464102 
C 0.91869 3.464102 1.799877 3.099102 2.44949 2.44949 
C 3.099102 1.799877 3.464102 0.91869 3.464102 -0 
C 3.464102 -0.91869 3.099102 -1.799877 2.44949 -2.44949 
C 1.799877 -3.099102 0.91869 -3.464102 0 -3.464102 
C -0.91869 -3.464102 -1.799877 -3.099102 -2.44949 -2.44949 
C -3.099102 -1.799877 -3.464102 -0.91869 -3.464102 0 
C -3.464102 0.91869 -3.099102 1.799877 -2.44949 2.44949 
C -1.799877 3.099102 -0.91869 3.464102 0 3.464102 
z
"/>
    </defs>
    <g clip-path="url(#p3504d54995)">
     <use xlink:href="#C0_0_60f5a72724" x="577.156514" y="392.697361" style="fill: #aab8cc; fill-opacity: 0.42"/>
    </g>
    <g clip-path="url(#p3504d54995)">
     <use xlink:href="#C0_0_60f5a72724" x="303.668792" y="388.29518" style="fill: #aab8cc; fill-opacity: 0.42"/>
    </g>
    <g clip-path="url(#p3504d54995)">
     <use xlink:href="#C0_0_60f5a72724" x="244.89596" y="391.70549" style="fill: #aab8cc; fill-opacity: 0.42"/>
    </g>
    <g clip-path="url(#p3504d54995)">
     <use xlink:href="#C0_0_60f5a72724" x="294.346877" y="388.386236" style="fill: #aab8cc; fill-opacity: 0.42"/>
    </g>
    <g clip-path="url(#p3504d54995)">
     <use xlink:href="#C0_0_60f5a72724" x="557.854125" y="228.111901" style="fill: #aab8cc; fill-opacity: 0.42"/>
    </g>
    <g clip-path="url(#p3504d54995)">
     <use xlink:href="#C0_0_60f5a72724" x="636.365962" y="390.656863" style="fill: #aab8cc; fill-opacity: 0.42"/>
    </g>
    <g clip-path="url(#p3504d54995)">
     <use xlink:href="#C0_0_60f5a72724" x="321.114113" y="388.370068" style="fill: #aab8cc; fill-opacity: 0.42"/>
    </g>
    <g clip-path="url(#p3504d54995)">
     <use xlink:href="#C0_0_60f5a72724" x="238.587496" y="392.923846" style="fill: #aab8cc; fill-opacity: 0.42"/>
    </g>
    <g clip-path="url(#p3504d54995)">
     <use xlink:href="#C0_0_60f5a72724" x="317.065415" y="89.626196" style="fill: #aab8cc; fill-opacity: 0.42"/>
    </g>
    <g clip-path="url(#p3504d54995)">
     <use xlink:href="#C0_0_60f5a72724" x="284.580457" y="387.632896" style="fill: #aab8cc; fill-opacity: 0.42"/>
    </g>
    <g clip-path="url(#p3504d54995)">
     <use xlink:href="#C0_0_60f5a72724" x="322.377347" y="345.116914" style="fill: #aab8cc; fill-opacity: 0.42"/>
    </g>
    <g clip-path="url(#p3504d54995)">
     <use xlink:href="#C0_0_60f5a72724" x="110.528239" y="376.561605" style="fill: #aab8cc; fill-opacity: 0.42"/>
    </g>
    <g clip-path="url(#p3504d54995)">
     <use xlink:href="#C0_0_60f5a72724" x="372.052061" y="395.719549" style="fill: #aab8cc; fill-opacity: 0.42"/>
    </g>
    <g clip-path="url(#p3504d54995)">
     <use xlink:href="#C0_0_60f5a72724" x="236.421538" y="383.472328" style="fill: #aab8cc; fill-opacity: 0.42"/>
    </g>
    <g clip-path="url(#p3504d54995)">
     <use xlink:href="#C0_0_60f5a72724" x="215.650271" y="393.361731" style="fill: #aab8cc; fill-opacity: 0.42"/>
    </g>
    <g clip-path="url(#p3504d54995)">
     <use xlink:href="#C0_0_60f5a72724" x="395.607948" y="343.098666" style="fill: #aab8cc; fill-opacity: 0.42"/>
    </g>
    <g clip-path="url(#p3504d54995)">
     <use xlink:href="#C0_0_60f5a72724" x="616.101829" y="373.693212" style="fill: #aab8cc; fill-opacity: 0.42"/>
    </g>
    <g clip-path="url(#p3504d54995)">
     <use xlink:href="#C0_0_60f5a72724" x="323.29023" y="395.420096" style="fill: #aab8cc; fill-opacity: 0.42"/>
    </g>
    <g clip-path="url(#p3504d54995)">
     <use xlink:href="#C0_0_60f5a72724" x="284.318478" y="392.2667" style="fill: #aab8cc; fill-opacity: 0.42"/>
    </g>
    <g clip-path="url(#p3504d54995)">
     <use xlink:href="#C0_0_60f5a72724" x="162.849656" y="376.572245" style="fill: #aab8cc; fill-opacity: 0.42"/>
    </g>
    <g clip-path="url(#p3504d54995)">
     <use xlink:href="#C0_0_60f5a72724" x="515.15677" y="384.36697" style="fill: #aab8cc; fill-opacity: 0.42"/>
    </g>
    <g clip-path="url(#p3504d54995)">
     <use xlink:href="#C0_0_60f5a72724" x="343.903854" y="389.876724" style="fill: #aab8cc; fill-opacity: 0.42"/>
    </g>
    <g clip-path="url(#p3504d54995)">
     <use xlink:href="#C0_0_60f5a72724" x="330.38528" y="391.979849" style="fill: #aab8cc; fill-opacity: 0.42"/>
    </g>
    <g clip-path="url(#p3504d54995)">
     <use xlink:href="#C0_0_60f5a72724" x="227.90591" y="394.571319" style="fill: #aab8cc; fill-opacity: 0.42"/>
    </g>
    <g clip-path="url(#p3504d54995)">
     <use xlink:href="#C0_0_60f5a72724" x="340.898627" y="393.183074" style="fill: #aab8cc; fill-opacity: 0.42"/>
    </g>
    <g clip-path="url(#p3504d54995)">
     <use xlink:href="#C0_0_60f5a72724" x="320.87742" y="397.30929" style="fill: #aab8cc; fill-opacity: 0.42"/>
    </g>
    <g clip-path="url(#p3504d54995)">
     <use xlink:href="#C0_0_60f5a72724" x="304.950243" y="396.101923" style="fill: #aab8cc; fill-opacity: 0.42"/>
    </g>
    <g clip-path="url(#p3504d54995)">
     <use xlink:href="#C0_0_60f5a72724" x="515.492276" y="383.35242" style="fill: #aab8cc; fill-opacity: 0.42"/>
    </g>
    <g clip-path="url(#p3504d54995)">
     <use xlink:href="#C0_0_60f5a72724" x="167.08862" y="347.858596" style="fill: #aab8cc; fill-opacity: 0.42"/>
    </g>
    <g clip-path="url(#p3504d54995)">
     <use xlink:href="#C0_0_60f5a72724" x="389.018675" y="410.321223" style="fill: #aab8cc; fill-opacity: 0.42"/>
    </g>
    <g clip-path="url(#p3504d54995)">
     <use xlink:href="#C0_0_60f5a72724" x="365.870228" y="393.532018" style="fill: #aab8cc; fill-opacity: 0.42"/>
    </g>
    <g clip-path="url(#p3504d54995)">
     <use xlink:href="#C0_0_60f5a72724" x="332.340031" y="388.572724" style="fill: #aab8cc; fill-opacity: 0.42"/>
    </g>
    <g clip-path="url(#p3504d54995)">
     <use xlink:href="#C0_0_60f5a72724" x="383.873057" y="395.580137" style="fill: #aab8cc; fill-opacity: 0.42"/>
    </g>
    <g clip-path="url(#p3504d54995)">
     <use xlink:href="#C0_0_60f5a72724" x="374.088528" y="368.683571" style="fill: #aab8cc; fill-opacity: 0.42"/>
    </g>
    <g clip-path="url(#p3504d54995)">
     <use xlink:href="#C0_0_60f5a72724" x="476.784814" y="383.681608" style="fill: #aab8cc; fill-opacity: 0.42"/>
    </g>
    <g clip-path="url(#p3504d54995)">
     <use xlink:href="#C0_0_60f5a72724" x="451.3179" y="81.570838" style="fill: #aab8cc; fill-opacity: 0.42"/>
    </g>
    <g clip-path="url(#p3504d54995)">
     <use xlink:href="#C0_0_60f5a72724" x="650.531498" y="405.989148" style="fill: #aab8cc; fill-opacity: 0.42"/>
    </g>
    <g clip-path="url(#p3504d54995)">
     <use xlink:href="#C0_0_60f5a72724" x="645.948271" y="394.316265" style="fill: #aab8cc; fill-opacity: 0.42"/>
    </g>
    <g clip-path="url(#p3504d54995)">
     <use xlink:href="#C0_0_60f5a72724" x="355.621655" y="393.18176" style="fill: #aab8cc; fill-opacity: 0.42"/>
    </g>
    <g clip-path="url(#p3504d54995)">
     <use xlink:href="#C0_0_60f5a72724" x="522.949501" y="407.13742" style="fill: #aab8cc; fill-opacity: 0.42"/>
    </g>
    <g clip-path="url(#p3504d54995)">
     <use xlink:href="#C0_0_60f5a72724" x="445.691425" y="396.309971" style="fill: #aab8cc; fill-opacity: 0.42"/>
    </g>
    <g clip-path="url(#p3504d54995)">
     <use xlink:href="#C0_0_60f5a72724" x="441.516758" y="325.798037" style="fill: #aab8cc; fill-opacity: 0.42"/>
    </g>
    <g clip-path="url(#p3504d54995)">
     <use xlink:href="#C0_0_60f5a72724" x="437.139717" y="394.567384" style="fill: #aab8cc; fill-opacity: 0.42"/>
    </g>
    <g clip-path="url(#p3504d54995)">
     <use xlink:href="#C0_0_60f5a72724" x="501.526135" y="388.460652" style="fill: #aab8cc; fill-opacity: 0.42"/>
    </g>
    <g clip-path="url(#p3504d54995)">
     <use xlink:href="#C0_0_60f5a72724" x="371.150737" y="399.755846" style="fill: #aab8cc; fill-opacity: 0.42"/>
    </g>
    <g clip-path="url(#p3504d54995)">
     <use xlink:href="#C0_0_60f5a72724" x="621.779883" y="391.884461" style="fill: #aab8cc; fill-opacity: 0.42"/>
    </g>
    <g clip-path="url(#p3504d54995)">
     <use xlink:href="#C0_0_60f5a72724" x="475.594035" y="382.068657" style="fill: #aab8cc; fill-opacity: 0.42"/>
    </g>
    <g clip-path="url(#p3504d54995)">
     <use xlink:href="#C0_0_60f5a72724" x="541.970909" y="397.495353" style="fill: #aab8cc; fill-opacity: 0.42"/>
    </g>
    <g clip-path="url(#p3504d54995)">
     <use xlink:href="#C0_0_60f5a72724" x="495.621307" y="390.058021" style="fill: #aab8cc; fill-opacity: 0.42"/>
    </g>
    <g clip-path="url(#p3504d54995)">
     <use xlink:href="#C0_0_60f5a72724" x="590.705156" y="393.138637" style="fill: #aab8cc; fill-opacity: 0.42"/>
    </g>
    <g clip-path="url(#p3504d54995)">
     <use xlink:href="#C0_0_60f5a72724" x="631.645379" y="329.670135" style="fill: #aab8cc; fill-opacity: 0.42"/>
    </g>
    <g clip-path="url(#p3504d54995)">
     <use xlink:href="#C0_0_60f5a72724" x="421.018164" y="369.186738" style="fill: #aab8cc; fill-opacity: 0.42"/>
    </g>
   </g>
   <g id="patch_3">
    <path d="M 82.910408 112.33182 
L 250.154168 112.33182 
Q 263.322968 112.33182 263.322968 105.12462 
L 263.322968 71.25078 
Q 263.322968 64.04358 250.154168 64.04358 
L 82.910408 64.04358 
Q 69.741608 64.04358 69.741608 71.25078 
L 69.741608 105.12462 
Q 69.741608 112.33182 82.910408 112.33182 
z
" clip-path="url(#p3504d54995)" style="fill: #ffffff; stroke: #c0392b; stroke-width: 1.2; stroke-linejoin: miter"/>
   </g>
   <g id="line2d_20">
    <path d="M 57.889688 393.8385 
L 716.329687 393.8385 
" clip-path="url(#p3504d54995)" style="fill: none; stroke-dasharray: 4.44,1.92; stroke-dashoffset: 0; stroke: #9ca3af; stroke-width: 1.2"/>
   </g>
   <g id="patch_4">
    <path d="M 57.889688 414.3135 
L 57.889688 53.9535 
" style="fill: none; stroke: #d1d5db; stroke-width: 0.8; stroke-linejoin: miter; stroke-linecap: square"/>
   </g>
   <g id="patch_5">
    <path d="M 57.889688 414.3135 
L 716.329687 414.3135 
" style="fill: none; stroke: #d1d5db; stroke-width: 0.8; stroke-linejoin: miter; stroke-linecap: square"/>
   </g>
   <g id="text_17">
    <text style="font-weight: 700; font-size: 16px; font-family: 'DejaVu Sans'; text-anchor: start; fill: #1b3a6b" x="57.889688" y="17.9175" transform="rotate(-0 57.889688 17.9175)">Preco medio x crescimento</text>
   </g>
   <g id="text_18">
    <text style="font-size: 9.5px; font-family: 'DejaVu Sans'; text-anchor: start; fill: #6b7280" x="57.889688" y="39.5391" transform="rotate(-0 57.889688 39.5391)">Cada ponto representa uma rede comparavel com venda em 2024 e 2025.</text>
   </g>
   <g id="text_19">
    <text style="font-weight: 700; font-size: 10px; font-family: 'DejaVu Sans'; text-anchor: start; fill: #c0392b" x="94.103888" y="87.703835" transform="rotate(-0 94.103888 87.703835)">Correlacao de Pearson: 0,026</text>
   </g>
   <g id="text_20">
    <text style="font-size: 8.7px; font-family: 'DejaVu Sans'; text-anchor: start; fill: #6b7280" x="94.103888" y="102.480236" transform="rotate(-0 94.103888 102.480236)">Relacao praticamente nula entre preco e crescimento.</text>
   </g>
   <g id="PathCollection_2">
    <defs>
     <path id="m75b0e4db0a" d="M 0 4.41588 
C 1.171105 4.41588 2.294403 3.950595 3.122499 3.122499 
C 3.950595 2.294403 4.41588 1.171105 4.41588 0 
C 4.41588 -1.171105 3.950595 -2.294403 3.122499 -3.122499 
C 2.294403 -3.950595 1.171105 -4.41588 0 -4.41588 
C -1.171105 -4.41588 -2.294403 -3.950595 -3.122499 -3.122499 
C -3.950595 -2.294403 -4.41588 -1.171105 -4.41588 0 
C -4.41588 1.171105 -3.950595 2.294403 -3.122499 3.122499 
C -2.294403 3.950595 -1.171105 4.41588 0 4.41588 
z
" style="stroke: #ffffff; stroke-opacity: 0.95; stroke-width: 0.8"/>
    </defs>
    <g clip-path="url(#p3504d54995)">
     <use xlink:href="#m75b0e4db0a" x="650.531498" y="405.989148" style="fill: #048a81; fill-opacity: 0.95; stroke: #ffffff; stroke-opacity: 0.95; stroke-width: 0.8"/>
    </g>
   </g>
   <g id="PathCollection_3">
    <defs>
     <path id="m7566adbc79" d="M 0 4.41588 
C 1.171105 4.41588 2.294403 3.950595 3.122499 3.122499 
C 3.950595 2.294403 4.41588 1.171105 4.41588 0 
C 4.41588 -1.171105 3.950595 -2.294403 3.122499 -3.122499 
C 2.294403 -3.950595 1.171105 -4.41588 0 -4.41588 
C -1.171105 -4.41588 -2.294403 -3.950595 -3.122499 -3.122499 
C -3.950595 -2.294403 -4.41588 -1.171105 -4.41588 0 
C -4.41588 1.171105 -3.950595 2.294403 -3.122499 3.122499 
C -2.294403 3.950595 -1.171105 4.41588 0 4.41588 
z
" style="stroke: #ffffff; stroke-opacity: 0.95; stroke-width: 0.8"/>
    </defs>
    <g clip-path="url(#p3504d54995)">
     <use xlink:href="#m7566adbc79" x="451.3179" y="81.570838" style="fill: #27ae60; fill-opacity: 0.95; stroke: #ffffff; stroke-opacity: 0.95; stroke-width: 0.8"/>
    </g>
   </g>
   <g id="PathCollection_4">
    <defs>
     <path id="m3043d30c6c" d="M 0 4.41588 
C 1.171105 4.41588 2.294403 3.950595 3.122499 3.122499 
C 3.950595 2.294403 4.41588 1.171105 4.41588 0 
C 4.41588 -1.171105 3.950595 -2.294403 3.122499 -3.122499 
C 2.294403 -3.950595 1.171105 -4.41588 0 -4.41588 
C -1.171105 -4.41588 -2.294403 -3.950595 -3.122499 -3.122499 
C -3.950595 -2.294403 -4.41588 -1.171105 -4.41588 0 
C -4.41588 1.171105 -3.950595 2.294403 -3.122499 3.122499 
C -2.294403 3.950595 -1.171105 4.41588 0 4.41588 
z
" style="stroke: #ffffff; stroke-opacity: 0.95; stroke-width: 0.8"/>
    </defs>
    <g clip-path="url(#p3504d54995)">
     <use xlink:href="#m3043d30c6c" x="577.156514" y="392.697361" style="fill: #1b3a6b; fill-opacity: 0.95; stroke: #ffffff; stroke-opacity: 0.95; stroke-width: 0.8"/>
    </g>
   </g>
   <g id="PathCollection_5">
    <g clip-path="url(#p3504d54995)">
     <use xlink:href="#m3043d30c6c" x="303.668792" y="388.29518" style="fill: #1b3a6b; fill-opacity: 0.95; stroke: #ffffff; stroke-opacity: 0.95; stroke-width: 0.8"/>
    </g>
   </g>
   <g id="PathCollection_6">
    <defs>
     <path id="m3681ee75e1" d="M 0 4.41588 
C 1.171105 4.41588 2.294403 3.950595 3.122499 3.122499 
C 3.950595 2.294403 4.41588 1.171105 4.41588 0 
C 4.41588 -1.171105 3.950595 -2.294403 3.122499 -3.122499 
C 2.294403 -3.950595 1.171105 -4.41588 0 -4.41588 
C -1.171105 -4.41588 -2.294403 -3.950595 -3.122499 -3.122499 
C -3.950595 -2.294403 -4.41588 -1.171105 -4.41588 0 
C -4.41588 1.171105 -3.950595 2.294403 -3.122499 3.122499 
C -2.294403 3.950595 -1.171105 4.41588 0 4.41588 
z
" style="stroke: #ffffff; stroke-opacity: 0.95; stroke-width: 0.8"/>
    </defs>
    <g clip-path="url(#p3504d54995)">
     <use xlink:href="#m3681ee75e1" x="557.854125" y="228.111901" style="fill: #e67e22; fill-opacity: 0.95; stroke: #ffffff; stroke-opacity: 0.95; stroke-width: 0.8"/>
    </g>
   </g>
   <g id="PathCollection_7">
    <defs>
     <path id="medc92fb14f" d="M 0 4.41588 
C 1.171105 4.41588 2.294403 3.950595 3.122499 3.122499 
C 3.950595 2.294403 4.41588 1.171105 4.41588 0 
C 4.41588 -1.171105 3.950595 -2.294403 3.122499 -3.122499 
C 2.294403 -3.950595 1.171105 -4.41588 0 -4.41588 
C -1.171105 -4.41588 -2.294403 -3.950595 -3.122499 -3.122499 
C -3.950595 -2.294403 -4.41588 -1.171105 -4.41588 0 
C -4.41588 1.171105 -3.950595 2.294403 -3.122499 3.122499 
C -2.294403 3.950595 -1.171105 4.41588 0 4.41588 
z
" style="stroke: #ffffff; stroke-opacity: 0.95; stroke-width: 0.8"/>
    </defs>
    <g clip-path="url(#p3504d54995)">
     <use xlink:href="#medc92fb14f" x="389.018675" y="410.321223" style="fill: #c0392b; fill-opacity: 0.95; stroke: #ffffff; stroke-opacity: 0.95; stroke-width: 0.8"/>
    </g>
   </g>
   <g id="text_21">
    <path d="M 661.050092 390.707273 
L 661.050092 394.710866 
L 661.656186 394.710866 
Q 662.692592 394.710866 663.239623 394.196179 
Q 663.788061 393.681491 663.788061 392.701335 
Q 663.788061 391.726804 663.242436 391.217741 
Q 662.698217 390.707273 661.656186 390.707273 
L 661.050092 390.707273 
z
M 659.358373 389.427585 
L 661.141498 389.427585 
Q 662.636342 389.427585 663.367592 389.641335 
Q 664.098842 389.853679 664.621967 390.364148 
Q 665.083217 390.808523 665.306811 391.389304 
Q 665.531811 391.968679 665.531811 392.701335 
Q 665.531811 393.445241 665.306811 394.027429 
Q 665.083217 394.609616 664.621967 395.052585 
Q 664.094623 395.563054 663.356342 395.776804 
Q 662.618061 395.989148 661.141498 395.989148 
L 659.358373 395.989148 
L 659.358373 389.427585 
z
M 669.455951 391.968679 
Q 669.856733 391.968679 670.062045 391.792898 
Q 670.268764 391.617116 670.268764 391.273991 
Q 670.268764 390.935085 670.062045 390.757898 
Q 669.856733 390.579304 669.455951 390.579304 
L 668.520795 390.579304 
L 668.520795 391.968679 
L 669.455951 391.968679 
z
M 669.513608 394.837429 
Q 670.02267 394.837429 670.280014 394.622273 
Q 670.537358 394.407116 670.537358 393.972585 
Q 670.537358 393.545085 670.282826 393.332741 
Q 670.028295 393.118991 669.513608 393.118991 
L 668.520795 393.118991 
L 668.520795 394.837429 
L 669.513608 394.837429 
z
M 671.087201 392.477741 
Q 671.63142 392.636648 671.929545 393.062741 
Q 672.229076 393.488835 672.229076 394.107585 
Q 672.229076 395.056804 671.587826 395.523679 
Q 670.946576 395.989148 669.635951 395.989148 
L 666.829076 395.989148 
L 666.829076 389.427585 
L 669.368764 389.427585 
Q 670.735639 389.427585 671.348764 389.841023 
Q 671.961889 390.25446 671.961889 391.164304 
Q 671.961889 391.642429 671.736889 391.978523 
Q 671.513295 392.314616 671.087201 392.477741 
z
" style="fill: #048a81; stroke: #ffffff; stroke-width: 3"/>
    <path d="M 661.050092 390.707273 
L 661.050092 394.710866 
L 661.656186 394.710866 
Q 662.692592 394.710866 663.239623 394.196179 
Q 663.788061 393.681491 663.788061 392.701335 
Q 663.788061 391.726804 663.242436 391.217741 
Q 662.698217 390.707273 661.656186 390.707273 
L 661.050092 390.707273 
z
M 659.358373 389.427585 
L 661.141498 389.427585 
Q 662.636342 389.427585 663.367592 389.641335 
Q 664.098842 389.853679 664.621967 390.364148 
Q 665.083217 390.808523 665.306811 391.389304 
Q 665.531811 391.968679 665.531811 392.701335 
Q 665.531811 393.445241 665.306811 394.027429 
Q 665.083217 394.609616 664.621967 395.052585 
Q 664.094623 395.563054 663.356342 395.776804 
Q 662.618061 395.989148 661.141498 395.989148 
L 659.358373 395.989148 
L 659.358373 389.427585 
z
M 669.455951 391.968679 
Q 669.856733 391.968679 670.062045 391.792898 
Q 670.268764 391.617116 670.268764 391.273991 
Q 670.268764 390.935085 670.062045 390.757898 
Q 669.856733 390.579304 669.455951 390.579304 
L 668.520795 390.579304 
L 668.520795 391.968679 
L 669.455951 391.968679 
z
M 669.513608 394.837429 
Q 670.02267 394.837429 670.280014 394.622273 
Q 670.537358 394.407116 670.537358 393.972585 
Q 670.537358 393.545085 670.282826 393.332741 
Q 670.028295 393.118991 669.513608 393.118991 
L 668.520795 393.118991 
L 668.520795 394.837429 
L 669.513608 394.837429 
z
M 671.087201 392.477741 
Q 671.63142 392.636648 671.929545 393.062741 
Q 672.229076 393.488835 672.229076 394.107585 
Q 672.229076 395.056804 671.587826 395.523679 
Q 670.946576 395.989148 669.635951 395.989148 
L 666.829076 395.989148 
L 666.829076 389.427585 
L 669.368764 389.427585 
Q 670.735639 389.427585 671.348764 389.841023 
Q 671.961889 390.25446 671.961889 391.164304 
Q 671.961889 391.642429 671.736889 391.978523 
Q 671.513295 392.314616 671.087201 392.477741 
z
" style="fill: #048a81"/>
   </g>
   <g id="text_22">
    <path d="M 460.144775 87.009275 
L 462.297744 87.009275 
L 463.791181 90.520681 
L 465.294462 87.009275 
L 467.443212 87.009275 
L 467.443212 93.570838 
L 465.844306 93.570838 
L 465.844306 88.771306 
L 464.332587 92.309431 
L 463.259619 92.309431 
L 461.7479 88.771306 
L 461.7479 93.570838 
L 460.144775 93.570838 
L 460.144775 87.009275 
z
M 469.192236 91.870681 
L 470.774267 91.870681 
L 470.774267 93.570838 
L 469.192236 93.570838 
L 469.192236 91.870681 
z
M 475.696494 93.688963 
L 475.564306 93.688963 
Q 473.9429 93.688963 473.041494 92.793181 
Q 472.141494 91.895994 472.141494 90.297088 
Q 472.141494 88.700994 473.040087 87.796775 
Q 473.938681 86.89115 475.516494 86.89115 
Q 477.111181 86.89115 478.001337 87.788338 
Q 478.891494 88.684119 478.891494 90.297088 
Q 478.891494 91.403806 478.418994 92.203963 
Q 477.946494 93.004119 477.05915 93.407713 
L 478.381025 94.884275 
L 476.768056 94.884275 
L 475.696494 93.688963 
z
M 475.516494 88.1174 
Q 474.743056 88.1174 474.316962 88.688338 
Q 473.890869 89.259275 473.890869 90.297088 
Q 473.890869 91.351775 474.307119 91.912869 
Q 474.724775 92.472556 475.516494 92.472556 
Q 476.29415 92.472556 476.720244 91.901619 
Q 477.146337 91.329275 477.146337 90.297088 
Q 477.146337 89.259275 476.720244 88.688338 
Q 476.29415 88.1174 475.516494 88.1174 
z
M 480.170654 87.009275 
L 481.862373 87.009275 
L 481.862373 90.942556 
Q 481.862373 91.755369 482.128154 92.105525 
Q 482.393935 92.454275 482.99581 92.454275 
Q 483.601904 92.454275 483.867685 92.105525 
Q 484.133466 91.755369 484.133466 90.942556 
L 484.133466 87.009275 
L 485.825185 87.009275 
L 485.825185 90.942556 
Q 485.825185 92.33615 485.126279 93.018181 
Q 484.428779 93.698806 482.99581 93.698806 
Q 481.56706 93.698806 480.868154 93.018181 
Q 480.170654 92.33615 480.170654 90.942556 
L 480.170654 87.009275 
z
M 491.178603 92.375525 
L 488.533447 92.375525 
L 488.11579 93.570838 
L 486.414228 93.570838 
L 488.844228 87.009275 
L 490.862197 87.009275 
L 493.292197 93.570838 
L 491.59204 93.570838 
L 491.178603 92.375525 
z
M 488.955322 91.157713 
L 490.752509 91.157713 
L 489.855322 88.547713 
L 488.955322 91.157713 
z
M 494.162841 87.009275 
L 495.85456 87.009275 
L 495.85456 92.292556 
L 498.82456 92.292556 
L 498.82456 93.570838 
L 494.162841 93.570838 
L 494.162841 87.009275 
z
M 499.897705 87.009275 
L 501.589423 87.009275 
L 501.589423 93.570838 
L 499.897705 93.570838 
L 499.897705 87.009275 
z
M 504.938056 88.288963 
L 504.938056 92.292556 
L 505.54415 92.292556 
Q 506.580556 92.292556 507.127587 91.777869 
Q 507.676025 91.263181 507.676025 90.283025 
Q 507.676025 89.308494 507.1304 88.799431 
Q 506.586181 88.288963 505.54415 88.288963 
L 504.938056 88.288963 
z
M 503.246337 87.009275 
L 505.029462 87.009275 
Q 506.524306 87.009275 507.255556 87.223025 
Q 507.986806 87.435369 508.509931 87.945838 
Q 508.971181 88.390213 509.194775 88.970994 
Q 509.419775 89.550369 509.419775 90.283025 
Q 509.419775 91.026931 509.194775 91.609119 
Q 508.971181 92.191306 508.509931 92.634275 
Q 507.982587 93.144744 507.244306 93.358494 
Q 506.506025 93.570838 505.029462 93.570838 
L 503.246337 93.570838 
L 503.246337 87.009275 
z
M 514.698134 92.375525 
L 512.052978 92.375525 
L 511.635322 93.570838 
L 509.933759 93.570838 
L 512.363759 87.009275 
L 514.381728 87.009275 
L 516.811728 93.570838 
L 515.111572 93.570838 
L 514.698134 92.375525 
z
M 512.474853 91.157713 
L 514.27204 91.157713 
L 513.374853 88.547713 
L 512.474853 91.157713 
z
M 519.374091 88.288963 
L 519.374091 92.292556 
L 519.980185 92.292556 
Q 521.016591 92.292556 521.563623 91.777869 
Q 522.11206 91.263181 522.11206 90.283025 
Q 522.11206 89.308494 521.566435 88.799431 
Q 521.022216 88.288963 519.980185 88.288963 
L 519.374091 88.288963 
z
M 517.682373 87.009275 
L 519.465498 87.009275 
Q 520.960341 87.009275 521.691591 87.223025 
Q 522.422841 87.435369 522.945966 87.945838 
Q 523.407216 88.390213 523.63081 88.970994 
Q 523.85581 89.550369 523.85581 90.283025 
Q 523.85581 91.026931 523.63081 91.609119 
Q 523.407216 92.191306 522.945966 92.634275 
Q 522.418623 93.144744 521.680341 93.358494 
Q 520.94206 93.570838 519.465498 93.570838 
L 517.682373 93.570838 
L 517.682373 87.009275 
z
M 525.153076 87.009275 
L 529.717763 87.009275 
L 529.717763 88.288963 
L 526.844794 88.288963 
L 526.844794 89.509588 
L 529.547607 89.509588 
L 529.547607 90.789275 
L 526.844794 90.789275 
L 526.844794 92.292556 
L 529.814794 92.292556 
L 529.814794 93.570838 
L 525.153076 93.570838 
L 525.153076 87.009275 
z
" style="fill: #27ae60; stroke: #ffffff; stroke-width: 3"/>
    <path d="M 460.144775 87.009275 
L 462.297744 87.009275 
L 463.791181 90.520681 
L 465.294462 87.009275 
L 467.443212 87.009275 
L 467.443212 93.570838 
L 465.844306 93.570838 
L 465.844306 88.771306 
L 464.332587 92.309431 
L 463.259619 92.309431 
L 461.7479 88.771306 
L 461.7479 93.570838 
L 460.144775 93.570838 
L 460.144775 87.009275 
z
M 469.192236 91.870681 
L 470.774267 91.870681 
L 470.774267 93.570838 
L 469.192236 93.570838 
L 469.192236 91.870681 
z
M 475.696494 93.688963 
L 475.564306 93.688963 
Q 473.9429 93.688963 473.041494 92.793181 
Q 472.141494 91.895994 472.141494 90.297088 
Q 472.141494 88.700994 473.040087 87.796775 
Q 473.938681 86.89115 475.516494 86.89115 
Q 477.111181 86.89115 478.001337 87.788338 
Q 478.891494 88.684119 478.891494 90.297088 
Q 478.891494 91.403806 478.418994 92.203963 
Q 477.946494 93.004119 477.05915 93.407713 
L 478.381025 94.884275 
L 476.768056 94.884275 
L 475.696494 93.688963 
z
M 475.516494 88.1174 
Q 474.743056 88.1174 474.316962 88.688338 
Q 473.890869 89.259275 473.890869 90.297088 
Q 473.890869 91.351775 474.307119 91.912869 
Q 474.724775 92.472556 475.516494 92.472556 
Q 476.29415 92.472556 476.720244 91.901619 
Q 477.146337 91.329275 477.146337 90.297088 
Q 477.146337 89.259275 476.720244 88.688338 
Q 476.29415 88.1174 475.516494 88.1174 
z
M 480.170654 87.009275 
L 481.862373 87.009275 
L 481.862373 90.942556 
Q 481.862373 91.755369 482.128154 92.105525 
Q 482.393935 92.454275 482.99581 92.454275 
Q 483.601904 92.454275 483.867685 92.105525 
Q 484.133466 91.755369 484.133466 90.942556 
L 484.133466 87.009275 
L 485.825185 87.009275 
L 485.825185 90.942556 
Q 485.825185 92.33615 485.126279 93.018181 
Q 484.428779 93.698806 482.99581 93.698806 
Q 481.56706 93.698806 480.868154 93.018181 
Q 480.170654 92.33615 480.170654 90.942556 
L 480.170654 87.009275 
z
M 491.178603 92.375525 
L 488.533447 92.375525 
L 488.11579 93.570838 
L 486.414228 93.570838 
L 488.844228 87.009275 
L 490.862197 87.009275 
L 493.292197 93.570838 
L 491.59204 93.570838 
L 491.178603 92.375525 
z
M 488.955322 91.157713 
L 490.752509 91.157713 
L 489.855322 88.547713 
L 488.955322 91.157713 
z
M 494.162841 87.009275 
L 495.85456 87.009275 
L 495.85456 92.292556 
L 498.82456 92.292556 
L 498.82456 93.570838 
L 494.162841 93.570838 
L 494.162841 87.009275 
z
M 499.897705 87.009275 
L 501.589423 87.009275 
L 501.589423 93.570838 
L 499.897705 93.570838 
L 499.897705 87.009275 
z
M 504.938056 88.288963 
L 504.938056 92.292556 
L 505.54415 92.292556 
Q 506.580556 92.292556 507.127587 91.777869 
Q 507.676025 91.263181 507.676025 90.283025 
Q 507.676025 89.308494 507.1304 88.799431 
Q 506.586181 88.288963 505.54415 88.288963 
L 504.938056 88.288963 
z
M 503.246337 87.009275 
L 505.029462 87.009275 
Q 506.524306 87.009275 507.255556 87.223025 
Q 507.986806 87.435369 508.509931 87.945838 
Q 508.971181 88.390213 509.194775 88.970994 
Q 509.419775 89.550369 509.419775 90.283025 
Q 509.419775 91.026931 509.194775 91.609119 
Q 508.971181 92.191306 508.509931 92.634275 
Q 507.982587 93.144744 507.244306 93.358494 
Q 506.506025 93.570838 505.029462 93.570838 
L 503.246337 93.570838 
L 503.246337 87.009275 
z
M 514.698134 92.375525 
L 512.052978 92.375525 
L 511.635322 93.570838 
L 509.933759 93.570838 
L 512.363759 87.009275 
L 514.381728 87.009275 
L 516.811728 93.570838 
L 515.111572 93.570838 
L 514.698134 92.375525 
z
M 512.474853 91.157713 
L 514.27204 91.157713 
L 513.374853 88.547713 
L 512.474853 91.157713 
z
M 519.374091 88.288963 
L 519.374091 92.292556 
L 519.980185 92.292556 
Q 521.016591 92.292556 521.563623 91.777869 
Q 522.11206 91.263181 522.11206 90.283025 
Q 522.11206 89.308494 521.566435 88.799431 
Q 521.022216 88.288963 519.980185 88.288963 
L 519.374091 88.288963 
z
M 517.682373 87.009275 
L 519.465498 87.009275 
Q 520.960341 87.009275 521.691591 87.223025 
Q 522.422841 87.435369 522.945966 87.945838 
Q 523.407216 88.390213 523.63081 88.970994 
Q 523.85581 89.550369 523.85581 90.283025 
Q 523.85581 91.026931 523.63081 91.609119 
Q 523.407216 92.191306 522.945966 92.634275 
Q 522.418623 93.144744 521.680341 93.358494 
Q 520.94206 93.570838 519.465498 93.570838 
L 517.682373 93.570838 
L 517.682373 87.009275 
z
M 525.153076 87.009275 
L 529.717763 87.009275 
L 529.717763 88.288963 
L 526.844794 88.288963 
L 526.844794 89.509588 
L 529.547607 89.509588 
L 529.547607 90.789275 
L 526.844794 90.789275 
L 526.844794 92.292556 
L 529.814794 92.292556 
L 529.814794 93.570838 
L 525.153076 93.570838 
L 525.153076 87.009275 
z
" style="fill: #27ae60"/>
   </g>
   <g id="text_23">
    <path d="M 591.879795 402.209392 
Q 591.246983 402.517361 590.566358 402.672049 
Q 589.885733 402.82533 589.160108 402.82533 
Q 587.52042 402.82533 586.562764 401.908455 
Q 585.605108 400.99158 585.605108 399.423611 
Q 585.605108 397.837361 586.579639 396.927517 
Q 587.555576 396.017674 589.25292 396.017674 
Q 589.906826 396.017674 590.505889 396.141424 
Q 591.106358 396.263767 591.63792 396.505642 
L 591.63792 397.862674 
Q 591.089483 397.551892 590.54667 397.398611 
Q 590.003858 397.243924 589.458233 397.243924 
Q 588.448545 397.243924 587.901514 397.809236 
Q 587.354483 398.373142 587.354483 399.423611 
Q 587.354483 400.464236 587.881826 401.032361 
Q 588.40917 401.59908 589.379483 401.59908 
Q 589.643858 401.59908 589.870264 401.566736 
Q 590.09667 401.532986 590.27667 401.462674 
L 590.27667 400.188611 
L 589.243076 400.188611 
L 589.243076 399.053767 
L 591.879795 399.053767 
L 591.879795 402.209392 
z
M 593.370596 396.135799 
L 596.177471 396.135799 
Q 597.43044 396.135799 598.099815 396.692674 
Q 598.770596 397.248142 598.770596 398.276111 
Q 598.770596 399.309705 598.099815 399.865174 
Q 597.43044 400.420642 596.177471 400.420642 
L 595.062315 400.420642 
L 595.062315 402.697361 
L 593.370596 402.697361 
L 593.370596 396.135799 
z
M 595.062315 397.362049 
L 595.062315 399.194392 
L 595.997471 399.194392 
Q 596.489658 399.194392 596.758252 398.95533 
Q 597.026846 398.716267 597.026846 398.276111 
Q 597.026846 397.837361 596.758252 397.599705 
Q 596.489658 397.362049 595.997471 397.362049 
L 595.062315 397.362049 
z
M 603.126631 401.502049 
L 600.481475 401.502049 
L 600.063819 402.697361 
L 598.362256 402.697361 
L 600.792256 396.135799 
L 602.810225 396.135799 
L 605.240225 402.697361 
L 603.540069 402.697361 
L 603.126631 401.502049 
z
M 600.90335 400.284236 
L 602.700537 400.284236 
L 601.80335 397.674236 
L 600.90335 400.284236 
z
" style="fill: #1b3a6b; stroke: #ffffff; stroke-width: 3"/>
    <path d="M 591.879795 402.209392 
Q 591.246983 402.517361 590.566358 402.672049 
Q 589.885733 402.82533 589.160108 402.82533 
Q 587.52042 402.82533 586.562764 401.908455 
Q 585.605108 400.99158 585.605108 399.423611 
Q 585.605108 397.837361 586.579639 396.927517 
Q 587.555576 396.017674 589.25292 396.017674 
Q 589.906826 396.017674 590.505889 396.141424 
Q 591.106358 396.263767 591.63792 396.505642 
L 591.63792 397.862674 
Q 591.089483 397.551892 590.54667 397.398611 
Q 590.003858 397.243924 589.458233 397.243924 
Q 588.448545 397.243924 587.901514 397.809236 
Q 587.354483 398.373142 587.354483 399.423611 
Q 587.354483 400.464236 587.881826 401.032361 
Q 588.40917 401.59908 589.379483 401.59908 
Q 589.643858 401.59908 589.870264 401.566736 
Q 590.09667 401.532986 590.27667 401.462674 
L 590.27667 400.188611 
L 589.243076 400.188611 
L 589.243076 399.053767 
L 591.879795 399.053767 
L 591.879795 402.209392 
z
M 593.370596 396.135799 
L 596.177471 396.135799 
Q 597.43044 396.135799 598.099815 396.692674 
Q 598.770596 397.248142 598.770596 398.276111 
Q 598.770596 399.309705 598.099815 399.865174 
Q 597.43044 400.420642 596.177471 400.420642 
L 595.062315 400.420642 
L 595.062315 402.697361 
L 593.370596 402.697361 
L 593.370596 396.135799 
z
M 595.062315 397.362049 
L 595.062315 399.194392 
L 595.997471 399.194392 
Q 596.489658 399.194392 596.758252 398.95533 
Q 597.026846 398.716267 597.026846 398.276111 
Q 597.026846 397.837361 596.758252 397.599705 
Q 596.489658 397.362049 595.997471 397.362049 
L 595.062315 397.362049 
z
M 603.126631 401.502049 
L 600.481475 401.502049 
L 600.063819 402.697361 
L 598.362256 402.697361 
L 600.792256 396.135799 
L 602.810225 396.135799 
L 605.240225 402.697361 
L 603.540069 402.697361 
L 603.126631 401.502049 
z
M 600.90335 400.284236 
L 602.700537 400.284236 
L 601.80335 397.674236 
L 600.90335 400.284236 
z
" style="fill: #1b3a6b"/>
   </g>
   <g id="text_24">
    <path d="M 315.492386 372.841742 
Q 314.718948 372.841742 314.292855 373.41268 
Q 313.866761 373.983617 313.866761 375.02143 
Q 313.866761 376.053617 314.292855 376.625961 
Q 314.718948 377.196898 315.492386 377.196898 
Q 316.270042 377.196898 316.696136 376.625961 
Q 317.12223 376.053617 317.12223 375.02143 
Q 317.12223 373.983617 316.696136 373.41268 
Q 316.270042 372.841742 315.492386 372.841742 
z
M 315.492386 371.615492 
Q 317.074417 371.615492 317.970198 372.521117 
Q 318.867386 373.425336 318.867386 375.02143 
Q 318.867386 376.611898 317.970198 377.517523 
Q 317.074417 378.423148 315.492386 378.423148 
Q 313.914573 378.423148 313.01598 377.517523 
Q 312.117386 376.611898 312.117386 375.02143 
Q 312.117386 373.425336 313.01598 372.521117 
Q 313.914573 371.615492 315.492386 371.615492 
z
M 322.773421 374.274711 
Q 323.174202 374.274711 323.379515 374.09893 
Q 323.586233 373.923148 323.586233 373.580023 
Q 323.586233 373.241117 323.379515 373.06393 
Q 323.174202 372.885336 322.773421 372.885336 
L 321.838265 372.885336 
L 321.838265 374.274711 
L 322.773421 374.274711 
z
M 322.831077 377.143461 
Q 323.34014 377.143461 323.597483 376.928305 
Q 323.854827 376.713148 323.854827 376.278617 
Q 323.854827 375.851117 323.600296 375.638773 
Q 323.345765 375.425023 322.831077 375.425023 
L 321.838265 375.425023 
L 321.838265 377.143461 
L 322.831077 377.143461 
z
M 324.404671 374.783773 
Q 324.94889 374.94268 325.247015 375.368773 
Q 325.546546 375.794867 325.546546 376.413617 
Q 325.546546 377.362836 324.905296 377.829711 
Q 324.264046 378.29518 322.953421 378.29518 
L 320.146546 378.29518 
L 320.146546 371.733617 
L 322.686233 371.733617 
Q 324.053108 371.733617 324.666233 372.147055 
Q 325.279358 372.560492 325.279358 373.470336 
Q 325.279358 373.948461 325.054358 374.284555 
Q 324.830765 374.620648 324.404671 374.783773 
z
M 330.987503 377.099867 
L 328.342347 377.099867 
L 327.92469 378.29518 
L 326.223128 378.29518 
L 328.653128 371.733617 
L 330.671097 371.733617 
L 333.101097 378.29518 
L 331.40094 378.29518 
L 330.987503 377.099867 
z
M 328.764222 375.882055 
L 330.561409 375.882055 
L 329.664222 373.272055 
L 328.764222 375.882055 
z
" style="fill: #1b3a6b; stroke: #ffffff; stroke-width: 3"/>
    <path d="M 315.492386 372.841742 
Q 314.718948 372.841742 314.292855 373.41268 
Q 313.866761 373.983617 313.866761 375.02143 
Q 313.866761 376.053617 314.292855 376.625961 
Q 314.718948 377.196898 315.492386 377.196898 
Q 316.270042 377.196898 316.696136 376.625961 
Q 317.12223 376.053617 317.12223 375.02143 
Q 317.12223 373.983617 316.696136 373.41268 
Q 316.270042 372.841742 315.492386 372.841742 
z
M 315.492386 371.615492 
Q 317.074417 371.615492 317.970198 372.521117 
Q 318.867386 373.425336 318.867386 375.02143 
Q 318.867386 376.611898 317.970198 377.517523 
Q 317.074417 378.423148 315.492386 378.423148 
Q 313.914573 378.423148 313.01598 377.517523 
Q 312.117386 376.611898 312.117386 375.02143 
Q 312.117386 373.425336 313.01598 372.521117 
Q 313.914573 371.615492 315.492386 371.615492 
z
M 322.773421 374.274711 
Q 323.174202 374.274711 323.379515 374.09893 
Q 323.586233 373.923148 323.586233 373.580023 
Q 323.586233 373.241117 323.379515 373.06393 
Q 323.174202 372.885336 322.773421 372.885336 
L 321.838265 372.885336 
L 321.838265 374.274711 
L 322.773421 374.274711 
z
M 322.831077 377.143461 
Q 323.34014 377.143461 323.597483 376.928305 
Q 323.854827 376.713148 323.854827 376.278617 
Q 323.854827 375.851117 323.600296 375.638773 
Q 323.345765 375.425023 322.831077 375.425023 
L 321.838265 375.425023 
L 321.838265 377.143461 
L 322.831077 377.143461 
z
M 324.404671 374.783773 
Q 324.94889 374.94268 325.247015 375.368773 
Q 325.546546 375.794867 325.546546 376.413617 
Q 325.546546 377.362836 324.905296 377.829711 
Q 324.264046 378.29518 322.953421 378.29518 
L 320.146546 378.29518 
L 320.146546 371.733617 
L 322.686233 371.733617 
Q 324.053108 371.733617 324.666233 372.147055 
Q 325.279358 372.560492 325.279358 373.470336 
Q 325.279358 373.948461 325.054358 374.284555 
Q 324.830765 374.620648 324.404671 374.783773 
z
M 330.987503 377.099867 
L 328.342347 377.099867 
L 327.92469 378.29518 
L 326.223128 378.29518 
L 328.653128 371.733617 
L 330.671097 371.733617 
L 333.101097 378.29518 
L 331.40094 378.29518 
L 330.987503 377.099867 
z
M 328.764222 375.882055 
L 330.561409 375.882055 
L 329.664222 373.272055 
L 328.764222 375.882055 
z
" style="fill: #1b3a6b"/>
   </g>
   <g id="text_25">
    <path d="M 571.245687 211.757057 
L 571.245687 213.146432 
Q 570.705687 212.904557 570.191 212.782214 
Q 569.677718 212.658464 569.220687 212.658464 
Q 568.614593 212.658464 568.3235 212.825807 
Q 568.033812 212.991745 568.033812 213.343307 
Q 568.033812 213.607682 568.229281 213.755339 
Q 568.42475 213.901589 568.939437 214.007057 
L 569.659437 214.151901 
Q 570.7535 214.372682 571.21475 214.821276 
Q 571.677406 215.268464 571.677406 216.095339 
Q 571.677406 217.179557 571.033343 217.709714 
Q 570.389281 218.23987 569.066 218.23987 
Q 568.443031 218.23987 567.814437 218.120339 
Q 567.185843 218.002214 566.55725 217.768776 
L 566.55725 216.341432 
Q 567.185843 216.674714 567.77225 216.84487 
Q 568.358656 217.01362 568.904281 217.01362 
Q 569.458343 217.01362 569.75225 216.829401 
Q 570.046156 216.643776 570.046156 216.300651 
Q 570.046156 215.994089 569.846468 215.826745 
Q 569.646781 215.659401 569.049125 215.527214 
L 568.393812 215.38237 
Q 567.409437 215.171432 566.953812 214.710182 
Q 566.499593 214.248932 566.499593 213.467057 
Q 566.499593 212.486901 567.132406 211.959557 
Q 567.765218 211.432214 568.952093 211.432214 
Q 569.4935 211.432214 570.064437 211.513776 
Q 570.635375 211.595339 571.245687 211.757057 
z
M 572.379652 211.550339 
L 578.426527 211.550339 
L 578.426527 212.830026 
L 576.251058 212.830026 
L 576.251058 218.111901 
L 574.559339 218.111901 
L 574.559339 212.830026 
L 572.379652 212.830026 
L 572.379652 211.550339 
z
M 582.435394 211.550339 
L 584.588363 211.550339 
L 586.0818 215.061745 
L 587.585082 211.550339 
L 589.733832 211.550339 
L 589.733832 218.111901 
L 588.134925 218.111901 
L 588.134925 213.31237 
L 586.623207 216.850495 
L 585.550238 216.850495 
L 584.038519 213.31237 
L 584.038519 218.111901 
L 582.435394 218.111901 
L 582.435394 211.550339 
z
M 595.372542 216.916589 
L 592.727386 216.916589 
L 592.30973 218.111901 
L 590.608167 218.111901 
L 593.038167 211.550339 
L 595.056136 211.550339 
L 597.486136 218.111901 
L 595.78598 218.111901 
L 595.372542 216.916589 
z
M 593.149261 215.698776 
L 594.946449 215.698776 
L 594.049261 213.088776 
L 593.149261 215.698776 
z
M 600.760062 214.45987 
Q 601.291625 214.45987 601.52225 214.262995 
Q 601.752875 214.064714 601.752875 213.611901 
Q 601.752875 213.163307 601.52225 212.970651 
Q 601.291625 212.776589 600.760062 212.776589 
L 600.0485 212.776589 
L 600.0485 214.45987 
L 600.760062 214.45987 
z
M 600.0485 215.628464 
L 600.0485 218.111901 
L 598.356781 218.111901 
L 598.356781 211.550339 
L 600.940062 211.550339 
Q 602.236625 211.550339 602.839906 211.986276 
Q 603.444593 212.420807 603.444593 213.361589 
Q 603.444593 214.011276 603.129593 214.428932 
Q 602.816 214.846589 602.183187 215.04487 
Q 602.530531 215.12362 602.80475 215.403464 
Q 603.080375 215.681901 603.361625 216.24862 
L 604.279906 218.111901 
L 602.4785 218.111901 
L 601.678343 216.482057 
Q 601.436468 215.98987 601.187562 215.80987 
Q 600.940062 215.628464 600.526625 215.628464 
L 600.0485 215.628464 
z
M 610.490082 217.751901 
Q 610.023207 217.993776 609.518363 218.11612 
Q 609.013519 218.23987 608.463675 218.23987 
Q 606.823988 218.23987 605.866332 217.322995 
Q 604.908675 216.40612 604.908675 214.838151 
Q 604.908675 213.264557 605.866332 212.349089 
Q 606.823988 211.432214 608.463675 211.432214 
Q 609.013519 211.432214 609.518363 211.555964 
Q 610.023207 211.678307 610.490082 211.920182 
L 610.490082 213.277214 
Q 610.018988 212.956589 609.561957 212.807526 
Q 609.104925 212.658464 608.600082 212.658464 
Q 607.694457 212.658464 607.17555 213.239245 
Q 606.65805 213.81862 606.65805 214.838151 
Q 606.65805 215.853464 607.17555 216.434245 
Q 607.694457 217.01362 608.600082 217.01362 
Q 609.104925 217.01362 609.561957 216.864557 
Q 610.018988 216.714089 610.490082 216.393464 
L 610.490082 217.751901 
z
M 611.891937 211.550339 
L 613.583656 211.550339 
L 613.583656 214.050651 
L 616.07975 214.050651 
L 616.07975 211.550339 
L 617.771468 211.550339 
L 617.771468 218.111901 
L 616.07975 218.111901 
L 616.07975 215.330339 
L 613.583656 215.330339 
L 613.583656 218.111901 
L 611.891937 218.111901 
L 611.891937 211.550339 
z
M 619.424164 211.550339 
L 623.988851 211.550339 
L 623.988851 212.830026 
L 621.115882 212.830026 
L 621.115882 214.050651 
L 623.818695 214.050651 
L 623.818695 215.330339 
L 621.115882 215.330339 
L 621.115882 216.83362 
L 624.085882 216.83362 
L 624.085882 218.111901 
L 619.424164 218.111901 
L 619.424164 211.550339 
z
" style="fill: #e67e22; stroke: #ffffff; stroke-width: 3"/>
    <path d="M 571.245687 211.757057 
L 571.245687 213.146432 
Q 570.705687 212.904557 570.191 212.782214 
Q 569.677718 212.658464 569.220687 212.658464 
Q 568.614593 212.658464 568.3235 212.825807 
Q 568.033812 212.991745 568.033812 213.343307 
Q 568.033812 213.607682 568.229281 213.755339 
Q 568.42475 213.901589 568.939437 214.007057 
L 569.659437 214.151901 
Q 570.7535 214.372682 571.21475 214.821276 
Q 571.677406 215.268464 571.677406 216.095339 
Q 571.677406 217.179557 571.033343 217.709714 
Q 570.389281 218.23987 569.066 218.23987 
Q 568.443031 218.23987 567.814437 218.120339 
Q 567.185843 218.002214 566.55725 217.768776 
L 566.55725 216.341432 
Q 567.185843 216.674714 567.77225 216.84487 
Q 568.358656 217.01362 568.904281 217.01362 
Q 569.458343 217.01362 569.75225 216.829401 
Q 570.046156 216.643776 570.046156 216.300651 
Q 570.046156 215.994089 569.846468 215.826745 
Q 569.646781 215.659401 569.049125 215.527214 
L 568.393812 215.38237 
Q 567.409437 215.171432 566.953812 214.710182 
Q 566.499593 214.248932 566.499593 213.467057 
Q 566.499593 212.486901 567.132406 211.959557 
Q 567.765218 211.432214 568.952093 211.432214 
Q 569.4935 211.432214 570.064437 211.513776 
Q 570.635375 211.595339 571.245687 211.757057 
z
M 572.379652 211.550339 
L 578.426527 211.550339 
L 578.426527 212.830026 
L 576.251058 212.830026 
L 576.251058 218.111901 
L 574.559339 218.111901 
L 574.559339 212.830026 
L 572.379652 212.830026 
L 572.379652 211.550339 
z
M 582.435394 211.550339 
L 584.588363 211.550339 
L 586.0818 215.061745 
L 587.585082 211.550339 
L 589.733832 211.550339 
L 589.733832 218.111901 
L 588.134925 218.111901 
L 588.134925 213.31237 
L 586.623207 216.850495 
L 585.550238 216.850495 
L 584.038519 213.31237 
L 584.038519 218.111901 
L 582.435394 218.111901 
L 582.435394 211.550339 
z
M 595.372542 216.916589 
L 592.727386 216.916589 
L 592.30973 218.111901 
L 590.608167 218.111901 
L 593.038167 211.550339 
L 595.056136 211.550339 
L 597.486136 218.111901 
L 595.78598 218.111901 
L 595.372542 216.916589 
z
M 593.149261 215.698776 
L 594.946449 215.698776 
L 594.049261 213.088776 
L 593.149261 215.698776 
z
M 600.760062 214.45987 
Q 601.291625 214.45987 601.52225 214.262995 
Q 601.752875 214.064714 601.752875 213.611901 
Q 601.752875 213.163307 601.52225 212.970651 
Q 601.291625 212.776589 600.760062 212.776589 
L 600.0485 212.776589 
L 600.0485 214.45987 
L 600.760062 214.45987 
z
M 600.0485 215.628464 
L 600.0485 218.111901 
L 598.356781 218.111901 
L 598.356781 211.550339 
L 600.940062 211.550339 
Q 602.236625 211.550339 602.839906 211.986276 
Q 603.444593 212.420807 603.444593 213.361589 
Q 603.444593 214.011276 603.129593 214.428932 
Q 602.816 214.846589 602.183187 215.04487 
Q 602.530531 215.12362 602.80475 215.403464 
Q 603.080375 215.681901 603.361625 216.24862 
L 604.279906 218.111901 
L 602.4785 218.111901 
L 601.678343 216.482057 
Q 601.436468 215.98987 601.187562 215.80987 
Q 600.940062 215.628464 600.526625 215.628464 
L 600.0485 215.628464 
z
M 610.490082 217.751901 
Q 610.023207 217.993776 609.518363 218.11612 
Q 609.013519 218.23987 608.463675 218.23987 
Q 606.823988 218.23987 605.866332 217.322995 
Q 604.908675 216.40612 604.908675 214.838151 
Q 604.908675 213.264557 605.866332 212.349089 
Q 606.823988 211.432214 608.463675 211.432214 
Q 609.013519 211.432214 609.518363 211.555964 
Q 610.023207 211.678307 610.490082 211.920182 
L 610.490082 213.277214 
Q 610.018988 212.956589 609.561957 212.807526 
Q 609.104925 212.658464 608.600082 212.658464 
Q 607.694457 212.658464 607.17555 213.239245 
Q 606.65805 213.81862 606.65805 214.838151 
Q 606.65805 215.853464 607.17555 216.434245 
Q 607.694457 217.01362 608.600082 217.01362 
Q 609.104925 217.01362 609.561957 216.864557 
Q 610.018988 216.714089 610.490082 216.393464 
L 610.490082 217.751901 
z
M 611.891937 211.550339 
L 613.583656 211.550339 
L 613.583656 214.050651 
L 616.07975 214.050651 
L 616.07975 211.550339 
L 617.771468 211.550339 
L 617.771468 218.111901 
L 616.07975 218.111901 
L 616.07975 215.330339 
L 613.583656 215.330339 
L 613.583656 218.111901 
L 611.891937 218.111901 
L 611.891937 211.550339 
z
M 619.424164 211.550339 
L 623.988851 211.550339 
L 623.988851 212.830026 
L 621.115882 212.830026 
L 621.115882 214.050651 
L 623.818695 214.050651 
L 623.818695 215.330339 
L 621.115882 215.330339 
L 621.115882 216.83362 
L 624.085882 216.83362 
L 624.085882 218.111901 
L 619.424164 218.111901 
L 619.424164 211.550339 
z
" style="fill: #e67e22"/>
   </g>
   <g id="text_26">
    <path d="M 397.84555 413.75966 
L 400.652425 413.75966 
Q 401.905394 413.75966 402.574769 414.316535 
Q 403.24555 414.872004 403.24555 415.899973 
Q 403.24555 416.933566 402.574769 417.489035 
Q 401.905394 418.044504 400.652425 418.044504 
L 399.537269 418.044504 
L 399.537269 420.321223 
L 397.84555 420.321223 
L 397.84555 413.75966 
z
M 399.537269 414.98591 
L 399.537269 416.818254 
L 400.472425 416.818254 
Q 400.964613 416.818254 401.233207 416.579191 
Q 401.5018 416.340129 401.5018 415.899973 
Q 401.5018 415.461223 401.233207 415.223566 
Q 400.964613 414.98591 400.472425 414.98591 
L 399.537269 414.98591 
z
M 407.601585 419.12591 
L 404.956429 419.12591 
L 404.538773 420.321223 
L 402.83721 420.321223 
L 405.26721 413.75966 
L 407.285179 413.75966 
L 409.715179 420.321223 
L 408.015023 420.321223 
L 407.601585 419.12591 
z
M 405.378304 417.908098 
L 407.175492 417.908098 
L 406.278304 415.298098 
L 405.378304 417.908098 
z
M 416.48223 419.833254 
Q 415.849418 420.141223 415.168793 420.29591 
Q 414.488168 420.449191 413.762543 420.449191 
Q 412.122855 420.449191 411.165199 419.532316 
Q 410.207543 418.615441 410.207543 417.047473 
Q 410.207543 415.461223 411.182074 414.551379 
Q 412.158011 413.641535 413.855355 413.641535 
Q 414.509261 413.641535 415.108324 413.765285 
Q 415.708793 413.887629 416.240355 414.129504 
L 416.240355 415.486535 
Q 415.691918 415.175754 415.149105 415.022473 
Q 414.606293 414.867785 414.060668 414.867785 
Q 413.05098 414.867785 412.503949 415.433098 
Q 411.956918 415.997004 411.956918 417.047473 
Q 411.956918 418.088098 412.484261 418.656223 
Q 413.011605 419.222941 413.981918 419.222941 
Q 414.246293 419.222941 414.472699 419.190598 
Q 414.699105 419.156848 414.879105 419.086535 
L 414.879105 417.812473 
L 413.845511 417.812473 
L 413.845511 416.677629 
L 416.48223 416.677629 
L 416.48223 419.833254 
z
M 417.973031 413.75966 
L 419.66475 413.75966 
L 419.66475 417.692941 
Q 419.66475 418.505754 419.930531 418.85591 
Q 420.196312 419.20466 420.798187 419.20466 
Q 421.404281 419.20466 421.670062 418.85591 
Q 421.935843 418.505754 421.935843 417.692941 
L 421.935843 413.75966 
L 423.627562 413.75966 
L 423.627562 417.692941 
Q 423.627562 419.086535 422.928656 419.768566 
Q 422.231156 420.449191 420.798187 420.449191 
Q 419.369437 420.449191 418.670531 419.768566 
Q 417.973031 419.086535 417.973031 417.692941 
L 417.973031 413.75966 
z
M 425.281136 413.75966 
L 429.845824 413.75966 
L 429.845824 415.039348 
L 426.972855 415.039348 
L 426.972855 416.259973 
L 429.675668 416.259973 
L 429.675668 417.53966 
L 426.972855 417.53966 
L 426.972855 419.042941 
L 429.942855 419.042941 
L 429.942855 420.321223 
L 425.281136 420.321223 
L 425.281136 413.75966 
z
M 434.562386 413.75966 
L 436.715355 413.75966 
L 438.208793 417.271066 
L 439.712074 413.75966 
L 441.860824 413.75966 
L 441.860824 420.321223 
L 440.261918 420.321223 
L 440.261918 415.521691 
L 438.750199 419.059816 
L 437.67723 419.059816 
L 436.165511 415.521691 
L 436.165511 420.321223 
L 434.562386 420.321223 
L 434.562386 413.75966 
z
M 443.518441 413.75966 
L 448.083128 413.75966 
L 448.083128 415.039348 
L 445.21016 415.039348 
L 445.21016 416.259973 
L 447.912972 416.259973 
L 447.912972 417.53966 
L 445.21016 417.53966 
L 445.21016 419.042941 
L 448.18016 419.042941 
L 448.18016 420.321223 
L 443.518441 420.321223 
L 443.518441 413.75966 
z
M 449.66639 413.75966 
L 451.554984 413.75966 
L 453.94139 418.25966 
L 453.94139 413.75966 
L 455.545921 413.75966 
L 455.545921 420.321223 
L 453.655921 420.321223 
L 451.269515 415.821223 
L 451.269515 420.321223 
L 449.66639 420.321223 
L 449.66639 413.75966 
z
M 460.195335 414.867785 
Q 459.421898 414.867785 458.995804 415.438723 
Q 458.56971 416.00966 458.56971 417.047473 
Q 458.56971 418.07966 458.995804 418.652004 
Q 459.421898 419.222941 460.195335 419.222941 
Q 460.972992 419.222941 461.399085 418.652004 
Q 461.825179 418.07966 461.825179 417.047473 
Q 461.825179 416.00966 461.399085 415.438723 
Q 460.972992 414.867785 460.195335 414.867785 
z
M 460.195335 413.641535 
Q 461.777367 413.641535 462.673148 414.54716 
Q 463.570335 415.451379 463.570335 417.047473 
Q 463.570335 418.637941 462.673148 419.543566 
Q 461.777367 420.449191 460.195335 420.449191 
Q 458.617523 420.449191 457.718929 419.543566 
Q 456.820335 418.637941 456.820335 417.047473 
Q 456.820335 415.451379 457.718929 414.54716 
Q 458.617523 413.641535 460.195335 413.641535 
z
M 469.414183 413.966379 
L 469.414183 415.355754 
Q 468.874183 415.113879 468.359496 414.991535 
Q 467.846214 414.867785 467.389183 414.867785 
Q 466.783089 414.867785 466.491996 415.035129 
Q 466.202308 415.201066 466.202308 415.552629 
Q 466.202308 415.817004 466.397777 415.96466 
Q 466.593246 416.11091 467.107933 416.216379 
L 467.827933 416.361223 
Q 468.921996 416.582004 469.383246 417.030598 
Q 469.845902 417.477785 469.845902 418.30466 
Q 469.845902 419.388879 469.201839 419.919035 
Q 468.557777 420.449191 467.234496 420.449191 
Q 466.611527 420.449191 465.982933 420.32966 
Q 465.354339 420.211535 464.725746 419.978098 
L 464.725746 418.550754 
Q 465.354339 418.884035 465.940746 419.054191 
Q 466.527152 419.222941 467.072777 419.222941 
Q 467.626839 419.222941 467.920746 419.038723 
Q 468.214652 418.853098 468.214652 418.509973 
Q 468.214652 418.20341 468.014964 418.036066 
Q 467.815277 417.868723 467.217621 417.736535 
L 466.562308 417.591691 
Q 465.577933 417.380754 465.122308 416.919504 
Q 464.668089 416.458254 464.668089 415.676379 
Q 464.668089 414.696223 465.300902 414.168879 
Q 465.933714 413.641535 467.120589 413.641535 
Q 467.661996 413.641535 468.232933 413.723098 
Q 468.803871 413.80466 469.414183 413.966379 
z
" style="fill: #c0392b; stroke: #ffffff; stroke-width: 3"/>
    <path d="M 397.84555 413.75966 
L 400.652425 413.75966 
Q 401.905394 413.75966 402.574769 414.316535 
Q 403.24555 414.872004 403.24555 415.899973 
Q 403.24555 416.933566 402.574769 417.489035 
Q 401.905394 418.044504 400.652425 418.044504 
L 399.537269 418.044504 
L 399.537269 420.321223 
L 397.84555 420.321223 
L 397.84555 413.75966 
z
M 399.537269 414.98591 
L 399.537269 416.818254 
L 400.472425 416.818254 
Q 400.964613 416.818254 401.233207 416.579191 
Q 401.5018 416.340129 401.5018 415.899973 
Q 401.5018 415.461223 401.233207 415.223566 
Q 400.964613 414.98591 400.472425 414.98591 
L 399.537269 414.98591 
z
M 407.601585 419.12591 
L 404.956429 419.12591 
L 404.538773 420.321223 
L 402.83721 420.321223 
L 405.26721 413.75966 
L 407.285179 413.75966 
L 409.715179 420.321223 
L 408.015023 420.321223 
L 407.601585 419.12591 
z
M 405.378304 417.908098 
L 407.175492 417.908098 
L 406.278304 415.298098 
L 405.378304 417.908098 
z
M 416.48223 419.833254 
Q 415.849418 420.141223 415.168793 420.29591 
Q 414.488168 420.449191 413.762543 420.449191 
Q 412.122855 420.449191 411.165199 419.532316 
Q 410.207543 418.615441 410.207543 417.047473 
Q 410.207543 415.461223 411.182074 414.551379 
Q 412.158011 413.641535 413.855355 413.641535 
Q 414.509261 413.641535 415.108324 413.765285 
Q 415.708793 413.887629 416.240355 414.129504 
L 416.240355 415.486535 
Q 415.691918 415.175754 415.149105 415.022473 
Q 414.606293 414.867785 414.060668 414.867785 
Q 413.05098 414.867785 412.503949 415.433098 
Q 411.956918 415.997004 411.956918 417.047473 
Q 411.956918 418.088098 412.484261 418.656223 
Q 413.011605 419.222941 413.981918 419.222941 
Q 414.246293 419.222941 414.472699 419.190598 
Q 414.699105 419.156848 414.879105 419.086535 
L 414.879105 417.812473 
L 413.845511 417.812473 
L 413.845511 416.677629 
L 416.48223 416.677629 
L 416.48223 419.833254 
z
M 417.973031 413.75966 
L 419.66475 413.75966 
L 419.66475 417.692941 
Q 419.66475 418.505754 419.930531 418.85591 
Q 420.196312 419.20466 420.798187 419.20466 
Q 421.404281 419.20466 421.670062 418.85591 
Q 421.935843 418.505754 421.935843 417.692941 
L 421.935843 413.75966 
L 423.627562 413.75966 
L 423.627562 417.692941 
Q 423.627562 419.086535 422.928656 419.768566 
Q 422.231156 420.449191 420.798187 420.449191 
Q 419.369437 420.449191 418.670531 419.768566 
Q 417.973031 419.086535 417.973031 417.692941 
L 417.973031 413.75966 
z
M 425.281136 413.75966 
L 429.845824 413.75966 
L 429.845824 415.039348 
L 426.972855 415.039348 
L 426.972855 416.259973 
L 429.675668 416.259973 
L 429.675668 417.53966 
L 426.972855 417.53966 
L 426.972855 419.042941 
L 429.942855 419.042941 
L 429.942855 420.321223 
L 425.281136 420.321223 
L 425.281136 413.75966 
z
M 434.562386 413.75966 
L 436.715355 413.75966 
L 438.208793 417.271066 
L 439.712074 413.75966 
L 441.860824 413.75966 
L 441.860824 420.321223 
L 440.261918 420.321223 
L 440.261918 415.521691 
L 438.750199 419.059816 
L 437.67723 419.059816 
L 436.165511 415.521691 
L 436.165511 420.321223 
L 434.562386 420.321223 
L 434.562386 413.75966 
z
M 443.518441 413.75966 
L 448.083128 413.75966 
L 448.083128 415.039348 
L 445.21016 415.039348 
L 445.21016 416.259973 
L 447.912972 416.259973 
L 447.912972 417.53966 
L 445.21016 417.53966 
L 445.21016 419.042941 
L 448.18016 419.042941 
L 448.18016 420.321223 
L 443.518441 420.321223 
L 443.518441 413.75966 
z
M 449.66639 413.75966 
L 451.554984 413.75966 
L 453.94139 418.25966 
L 453.94139 413.75966 
L 455.545921 413.75966 
L 455.545921 420.321223 
L 453.655921 420.321223 
L 451.269515 415.821223 
L 451.269515 420.321223 
L 449.66639 420.321223 
L 449.66639 413.75966 
z
M 460.195335 414.867785 
Q 459.421898 414.867785 458.995804 415.438723 
Q 458.56971 416.00966 458.56971 417.047473 
Q 458.56971 418.07966 458.995804 418.652004 
Q 459.421898 419.222941 460.195335 419.222941 
Q 460.972992 419.222941 461.399085 418.652004 
Q 461.825179 418.07966 461.825179 417.047473 
Q 461.825179 416.00966 461.399085 415.438723 
Q 460.972992 414.867785 460.195335 414.867785 
z
M 460.195335 413.641535 
Q 461.777367 413.641535 462.673148 414.54716 
Q 463.570335 415.451379 463.570335 417.047473 
Q 463.570335 418.637941 462.673148 419.543566 
Q 461.777367 420.449191 460.195335 420.449191 
Q 458.617523 420.449191 457.718929 419.543566 
Q 456.820335 418.637941 456.820335 417.047473 
Q 456.820335 415.451379 457.718929 414.54716 
Q 458.617523 413.641535 460.195335 413.641535 
z
M 469.414183 413.966379 
L 469.414183 415.355754 
Q 468.874183 415.113879 468.359496 414.991535 
Q 467.846214 414.867785 467.389183 414.867785 
Q 466.783089 414.867785 466.491996 415.035129 
Q 466.202308 415.201066 466.202308 415.552629 
Q 466.202308 415.817004 466.397777 415.96466 
Q 466.593246 416.11091 467.107933 416.216379 
L 467.827933 416.361223 
Q 468.921996 416.582004 469.383246 417.030598 
Q 469.845902 417.477785 469.845902 418.30466 
Q 469.845902 419.388879 469.201839 419.919035 
Q 468.557777 420.449191 467.234496 420.449191 
Q 466.611527 420.449191 465.982933 420.32966 
Q 465.354339 420.211535 464.725746 419.978098 
L 464.725746 418.550754 
Q 465.354339 418.884035 465.940746 419.054191 
Q 466.527152 419.222941 467.072777 419.222941 
Q 467.626839 419.222941 467.920746 419.038723 
Q 468.214652 418.853098 468.214652 418.509973 
Q 468.214652 418.20341 468.014964 418.036066 
Q 467.815277 417.868723 467.217621 417.736535 
L 466.562308 417.591691 
Q 465.577933 417.380754 465.122308 416.919504 
Q 464.668089 416.458254 464.668089 415.676379 
Q 464.668089 414.696223 465.300902 414.168879 
Q 465.933714 413.641535 467.120589 413.641535 
Q 467.661996 413.641535 468.232933 413.723098 
Q 468.803871 413.80466 469.414183 413.966379 
z
" style="fill: #c0392b"/>
   </g>
  </g>
 </g>
 <defs>
  <clipPath id="p3504d54995">
   <rect x="57.889688" y="53.9535" width="658.44" height="360.36"/>
  </clipPath>
 </defs>
</svg>
